<svg width="30" height="20" viewBox="0 0 30 20" fill="none" xmlns="http://www.w3.org/2000/svg">
<path fill-rule="evenodd" clip-rule="evenodd" d="M13.3378 17.8922L10.5673 15.1027L15 10.6397L19.4327 15.1028L16.6622 17.8922C16.4233 18.1328 16.1458 18.3107 15.8497 18.4261C15.0081 18.7539 14.0169 18.5759 13.3378 17.8922ZM16.1418 19.1584C16.5333 19.0045 16.9003 18.7684 17.2164 18.45L20.068 15.579L23.3113 18.8445C24.8414 20.3851 27.3222 20.3851 28.8523 18.8445C30.3824 17.304 30.3824 14.8062 28.8523 13.2656L25.6089 10.0001L28.8524 6.73434C30.3825 5.19377 30.3825 2.696 28.8524 1.15543C27.3223 -0.385143 24.8416 -0.385143 23.3115 1.15543L20.0681 4.42107L19.987 4.33941L17.2165 1.54995C16.7765 1.10699 16.2383 0.823233 15.6725 0.698687C15.6295 0.689208 15.5862 0.680652 15.5429 0.673017C14.571 0.501771 13.5342 0.79407 12.7835 1.54991L10.013 4.33937L9.93189 4.42108L6.68851 1.15548C5.15842 -0.385089 2.67766 -0.385089 1.14757 1.15548C-0.382523 2.69606 -0.382522 5.19382 1.14757 6.73439L4.39107 10.0001L1.14774 13.2657C-0.38235 14.8062 -0.38235 17.304 1.14774 18.8446C2.67783 20.3851 5.1586 20.3851 6.68869 18.8446L9.93201 15.579L12.7836 18.4501C13.6915 19.3642 15.0178 19.6003 16.1418 19.1584ZM15.6352 10.0001L20.068 5.53694L24.5007 10.0001L20.068 14.4632L15.6352 10.0001ZM25.0548 9.44218L20.6221 4.97905L23.8656 1.71332C25.0897 0.480862 27.0743 0.480862 28.2983 1.71332C29.5224 2.94578 29.5224 4.94399 28.2983 6.17645L25.0548 9.44218ZM25.0548 10.558L20.6221 15.0211L23.8654 18.2866C25.0895 19.5191 27.0741 19.5191 28.2982 18.2866C29.5222 17.0542 29.5222 15.056 28.2982 13.8235L25.0548 10.558ZM6.13442 1.71338L9.37792 4.9791L4.94516 9.44222L1.70166 6.1765C0.47759 4.94404 0.47759 2.94583 1.70166 1.71338C2.92573 0.480917 4.91035 0.480917 6.13442 1.71338ZM16.6622 2.1078C16.3323 1.77562 15.9287 1.56281 15.5043 1.46938C15.4767 1.46329 15.4489 1.45771 15.4211 1.45263C14.6882 1.319 13.9044 1.53741 13.3378 2.10785L10.5673 4.89738L15 9.36051L19.4328 4.89738L16.6622 2.1078ZM5.49926 10.0001L9.93201 5.53699L14.3648 10.0001L9.93201 14.4632L5.49926 10.0001ZM4.94516 10.558L9.37792 15.0211L6.13459 18.2867C4.91052 19.5191 2.92591 19.5191 1.70184 18.2867C0.477763 17.0542 0.477763 15.056 1.70183 13.8236L4.94516 10.558Z" fill="#E7CB97"/>
</svg>
