<svg width="190" height="66" viewBox="0 0 190 66" fill="none" xmlns="http://www.w3.org/2000/svg">
<rect width="190" height="66" rx="33" fill="#232323"/>
<g clip-path="url(#clip0)">
<path d="M49.4551 41.3796C48.9883 42.4277 48.4357 43.3925 47.7955 44.2795C46.9229 45.4887 46.2084 46.3257 45.6578 46.7905C44.8042 47.5535 43.8896 47.9442 42.9103 47.9664C42.2072 47.9664 41.3594 47.772 40.3724 47.3775C39.3822 46.985 38.4722 46.7905 37.6402 46.7905C36.7675 46.7905 35.8316 46.985 34.8306 47.3775C33.828 47.772 33.0203 47.9775 32.4028 47.9979C31.4637 48.0368 30.5276 47.6349 29.5933 46.7905C28.9969 46.285 28.251 45.4183 27.3574 44.1906C26.3986 42.8795 25.6104 41.3592 24.9929 39.6259C24.3315 37.7538 24 35.9409 24 34.1857C24 32.1752 24.447 30.4412 25.3423 28.9881C26.0459 27.8209 26.982 26.9002 28.1536 26.2243C29.3252 25.5484 30.5911 25.204 31.9543 25.1819C32.7003 25.1819 33.6784 25.4062 34.894 25.8469C36.1062 26.2891 36.8845 26.5134 37.2258 26.5134C37.4809 26.5134 38.3455 26.2512 39.8113 25.7284C41.1974 25.2436 42.3673 25.0429 43.3256 25.1219C45.9226 25.3256 47.8736 26.3206 49.1712 28.1131C46.8486 29.4809 45.6997 31.3966 45.7225 33.8541C45.7435 35.7683 46.458 37.3612 47.8622 38.626C48.4986 39.213 49.2093 39.6667 50 39.9889C49.8285 40.4722 49.6475 40.9351 49.4551 41.3796ZM43.499 18.6007C43.499 20.101 42.9351 21.5019 41.8109 22.7985C40.4543 24.3399 38.8135 25.2306 37.0341 25.0901C37.0114 24.9101 36.9983 24.7207 36.9983 24.5216C36.9983 23.0813 37.6434 21.5398 38.7891 20.2795C39.3611 19.6414 40.0885 19.1108 40.9707 18.6875C41.8509 18.2706 42.6836 18.04 43.4666 18.0005C43.4895 18.2011 43.499 18.4016 43.499 18.6006V18.6007Z" fill="white"/>
</g>
<path d="M66.6 18.206C66.924 17.918 67.3 17.698 67.728 17.546C68.156 17.394 68.642 17.318 69.186 17.318C69.63 17.318 70.028 17.372 70.38 17.48C70.736 17.588 71.038 17.74 71.286 17.936C71.534 18.132 71.724 18.364 71.856 18.632C71.992 18.9 72.06 19.194 72.06 19.514C72.06 19.946 71.952 20.326 71.736 20.654C71.524 20.982 71.224 21.236 70.836 21.416C71.056 21.508 71.256 21.622 71.436 21.758C71.616 21.89 71.77 22.04 71.898 22.208C72.03 22.376 72.13 22.56 72.198 22.76C72.27 22.96 72.306 23.17 72.306 23.39C72.306 23.766 72.236 24.118 72.096 24.446C71.956 24.774 71.752 25.06 71.484 25.304C71.22 25.544 70.894 25.734 70.506 25.874C70.118 26.014 69.676 26.084 69.18 26.084C68.564 26.084 68.01 25.984 67.518 25.784C67.026 25.58 66.604 25.306 66.252 24.962L66.588 24.41C66.62 24.366 66.66 24.33 66.708 24.302C66.756 24.27 66.808 24.254 66.864 24.254C66.948 24.254 67.048 24.3 67.164 24.392C67.28 24.48 67.428 24.578 67.608 24.686C67.788 24.794 68.006 24.894 68.262 24.986C68.522 25.074 68.838 25.118 69.21 25.118C69.526 25.118 69.808 25.08 70.056 25.004C70.308 24.928 70.518 24.818 70.686 24.674C70.858 24.53 70.988 24.354 71.076 24.146C71.168 23.938 71.214 23.704 71.214 23.444C71.214 23.22 71.17 23.014 71.082 22.826C70.998 22.638 70.874 22.478 70.71 22.346C70.546 22.21 70.346 22.106 70.11 22.034C69.874 21.958 69.608 21.92 69.312 21.92H68.136V20.966H69.264C69.508 20.966 69.734 20.936 69.942 20.876C70.154 20.816 70.334 20.728 70.482 20.612C70.634 20.496 70.752 20.354 70.836 20.186C70.924 20.018 70.968 19.826 70.968 19.61C70.968 19.414 70.928 19.234 70.848 19.07C70.768 18.906 70.652 18.766 70.5 18.65C70.348 18.53 70.162 18.438 69.942 18.374C69.722 18.31 69.472 18.278 69.192 18.278C68.868 18.278 68.592 18.312 68.364 18.38C68.136 18.448 67.944 18.524 67.788 18.608C67.632 18.688 67.504 18.762 67.404 18.83C67.308 18.898 67.224 18.932 67.152 18.932C67.088 18.932 67.036 18.918 66.996 18.89C66.956 18.862 66.918 18.816 66.882 18.752L66.6 18.206ZM77.1886 23.264C76.6966 23.28 76.2766 23.32 75.9286 23.384C75.5846 23.444 75.3026 23.524 75.0826 23.624C74.8666 23.724 74.7086 23.842 74.6086 23.978C74.5126 24.114 74.4646 24.266 74.4646 24.434C74.4646 24.594 74.4906 24.732 74.5426 24.848C74.5946 24.964 74.6646 25.06 74.7526 25.136C74.8446 25.208 74.9506 25.262 75.0706 25.298C75.1946 25.33 75.3266 25.346 75.4666 25.346C75.6546 25.346 75.8266 25.328 75.9826 25.292C76.1386 25.252 76.2846 25.196 76.4206 25.124C76.5606 25.052 76.6926 24.966 76.8166 24.866C76.9446 24.766 77.0686 24.652 77.1886 24.524V23.264ZM73.7386 20.78C74.0746 20.456 74.4366 20.214 74.8246 20.054C75.2126 19.894 75.6426 19.814 76.1146 19.814C76.4546 19.814 76.7566 19.87 77.0206 19.982C77.2846 20.094 77.5066 20.25 77.6866 20.45C77.8666 20.65 78.0026 20.892 78.0946 21.176C78.1866 21.46 78.2326 21.772 78.2326 22.112V26H77.7586C77.6546 26 77.5746 25.984 77.5186 25.952C77.4626 25.916 77.4186 25.848 77.3866 25.748L77.2666 25.172C77.1066 25.32 76.9506 25.452 76.7986 25.568C76.6466 25.68 76.4866 25.776 76.3186 25.856C76.1506 25.932 75.9706 25.99 75.7786 26.03C75.5906 26.074 75.3806 26.096 75.1486 26.096C74.9126 26.096 74.6906 26.064 74.4826 26C74.2746 25.932 74.0926 25.832 73.9366 25.7C73.7846 25.568 73.6626 25.402 73.5706 25.202C73.4826 24.998 73.4386 24.758 73.4386 24.482C73.4386 24.242 73.5046 24.012 73.6366 23.792C73.7686 23.568 73.9826 23.37 74.2786 23.198C74.5746 23.026 74.9606 22.886 75.4366 22.778C75.9126 22.666 76.4966 22.602 77.1886 22.586V22.112C77.1886 21.64 77.0866 21.284 76.8826 21.044C76.6786 20.8 76.3806 20.678 75.9886 20.678C75.7246 20.678 75.5026 20.712 75.3226 20.78C75.1466 20.844 74.9926 20.918 74.8606 21.002C74.7326 21.082 74.6206 21.156 74.5246 21.224C74.4326 21.288 74.3406 21.32 74.2486 21.32C74.1766 21.32 74.1146 21.302 74.0626 21.266C74.0106 21.226 73.9666 21.178 73.9306 21.122L73.7386 20.78ZM84.0414 20.738H81.1734V26H80.0994V19.922H84.0414V20.738ZM86.3705 24.536C86.5665 24.8 86.7805 24.986 87.0125 25.094C87.2445 25.202 87.5045 25.256 87.7925 25.256C88.3605 25.256 88.7965 25.054 89.1005 24.65C89.4045 24.246 89.5565 23.67 89.5565 22.922C89.5565 22.526 89.5205 22.186 89.4485 21.902C89.3805 21.618 89.2805 21.386 89.1485 21.206C89.0165 21.022 88.8545 20.888 88.6625 20.804C88.4705 20.72 88.2525 20.678 88.0085 20.678C87.6605 20.678 87.3545 20.758 87.0905 20.918C86.8305 21.078 86.5905 21.304 86.3705 21.596V24.536ZM86.3165 20.864C86.5725 20.548 86.8685 20.294 87.2045 20.102C87.5405 19.91 87.9245 19.814 88.3565 19.814C88.7085 19.814 89.0265 19.882 89.3105 20.018C89.5945 20.15 89.8365 20.348 90.0365 20.612C90.2365 20.872 90.3905 21.196 90.4985 21.584C90.6065 21.972 90.6605 22.418 90.6605 22.922C90.6605 23.37 90.6005 23.788 90.4805 24.176C90.3605 24.56 90.1865 24.894 89.9585 25.178C89.7345 25.458 89.4585 25.68 89.1305 25.844C88.8065 26.004 88.4405 26.084 88.0325 26.084C87.6605 26.084 87.3405 26.022 87.0725 25.898C86.8085 25.77 86.5745 25.594 86.3705 25.37V28.058H85.2965V19.922H85.9385C86.0905 19.922 86.1845 19.996 86.2205 20.144L86.3165 20.864ZM97.3312 19.922L93.9412 27.794C93.9052 27.874 93.8592 27.938 93.8032 27.986C93.7512 28.034 93.6692 28.058 93.5572 28.058H92.7652L93.8752 25.646L91.3672 19.922H92.2912C92.3832 19.922 92.4552 19.946 92.5072 19.994C92.5632 20.038 92.6012 20.088 92.6212 20.144L94.2472 23.972C94.3112 24.14 94.3652 24.316 94.4092 24.5C94.4652 24.312 94.5252 24.134 94.5892 23.966L96.1672 20.144C96.1912 20.08 96.2312 20.028 96.2872 19.988C96.3472 19.944 96.4132 19.922 96.4852 19.922H97.3312ZM98.0839 20.546C98.3119 20.33 98.5879 20.156 98.9119 20.024C99.2399 19.892 99.6339 19.826 100.094 19.826C100.462 19.826 100.786 19.872 101.066 19.964C101.346 20.052 101.58 20.17 101.768 20.318C101.96 20.466 102.104 20.636 102.2 20.828C102.3 21.016 102.35 21.212 102.35 21.416C102.35 21.536 102.33 21.662 102.29 21.794C102.254 21.926 102.192 22.052 102.104 22.172C102.016 22.292 101.902 22.404 101.762 22.508C101.622 22.612 101.448 22.696 101.24 22.76C101.628 22.876 101.932 23.062 102.152 23.318C102.376 23.574 102.488 23.888 102.488 24.26C102.488 24.54 102.424 24.794 102.296 25.022C102.168 25.246 101.996 25.438 101.78 25.598C101.564 25.754 101.312 25.874 101.024 25.958C100.74 26.042 100.442 26.084 100.13 26.084C99.9339 26.084 99.7339 26.066 99.5299 26.03C99.3299 25.994 99.1339 25.938 98.9419 25.862C98.7499 25.782 98.5679 25.684 98.3959 25.568C98.2279 25.452 98.0779 25.312 97.9459 25.148L98.2459 24.758C98.2939 24.69 98.3619 24.656 98.4499 24.656C98.5219 24.656 98.5979 24.688 98.6779 24.752C98.7619 24.812 98.8639 24.88 98.9839 24.956C99.1039 25.032 99.2499 25.102 99.4219 25.166C99.5979 25.226 99.8119 25.256 100.064 25.256C100.284 25.256 100.48 25.23 100.652 25.178C100.828 25.122 100.976 25.046 101.096 24.95C101.216 24.854 101.308 24.74 101.372 24.608C101.436 24.476 101.468 24.332 101.468 24.176C101.468 23.876 101.342 23.634 101.09 23.45C100.842 23.266 100.464 23.174 99.9559 23.174H99.2659V22.466H99.9559C100.176 22.466 100.374 22.444 100.55 22.4C100.726 22.352 100.876 22.288 101 22.208C101.124 22.128 101.218 22.032 101.282 21.92C101.346 21.804 101.378 21.68 101.378 21.548C101.378 21.428 101.35 21.314 101.294 21.206C101.242 21.098 101.16 21.004 101.048 20.924C100.94 20.844 100.804 20.78 100.64 20.732C100.476 20.684 100.284 20.66 100.064 20.66C99.8239 20.66 99.6199 20.684 99.4519 20.732C99.2879 20.78 99.1479 20.832 99.0319 20.888C98.9199 20.944 98.8279 20.996 98.7559 21.044C98.6839 21.092 98.6219 21.116 98.5699 21.116C98.5179 21.116 98.4739 21.106 98.4379 21.086C98.4059 21.066 98.3699 21.024 98.3299 20.96L98.0839 20.546ZM109.312 19.922V26H108.244V21.872C108.244 21.792 108.248 21.706 108.256 21.614C108.264 21.522 108.274 21.43 108.286 21.338C108.25 21.418 108.214 21.492 108.178 21.56C108.142 21.628 108.104 21.69 108.064 21.746L105.13 25.736C105.086 25.8 105.03 25.862 104.962 25.922C104.898 25.978 104.826 26.006 104.746 26.006H104.098V19.928H105.172V24.056C105.172 24.132 105.168 24.216 105.16 24.308C105.152 24.396 105.142 24.486 105.13 24.578C105.166 24.502 105.202 24.432 105.238 24.368C105.274 24.3 105.31 24.238 105.346 24.182L108.28 20.192C108.324 20.128 108.38 20.068 108.448 20.012C108.516 19.952 108.59 19.922 108.67 19.922H109.312ZM116.293 20.738H113.959V26H112.891V20.738H110.557V19.922H116.293V20.738ZM121.373 22.298C121.373 22.05 121.337 21.824 121.265 21.62C121.197 21.412 121.095 21.234 120.959 21.086C120.827 20.934 120.665 20.818 120.473 20.738C120.281 20.654 120.063 20.612 119.819 20.612C119.307 20.612 118.901 20.762 118.601 21.062C118.305 21.358 118.121 21.77 118.049 22.298H121.373ZM122.237 25.148C122.105 25.308 121.947 25.448 121.763 25.568C121.579 25.684 121.381 25.78 121.169 25.856C120.961 25.932 120.745 25.988 120.521 26.024C120.297 26.064 120.075 26.084 119.855 26.084C119.435 26.084 119.047 26.014 118.691 25.874C118.339 25.73 118.033 25.522 117.773 25.25C117.517 24.974 117.317 24.634 117.173 24.23C117.029 23.826 116.957 23.362 116.957 22.838C116.957 22.414 117.021 22.018 117.149 21.65C117.281 21.282 117.469 20.964 117.713 20.696C117.957 20.424 118.255 20.212 118.607 20.06C118.959 19.904 119.355 19.826 119.795 19.826C120.159 19.826 120.495 19.888 120.803 20.012C121.115 20.132 121.383 20.308 121.607 20.54C121.835 20.768 122.013 21.052 122.141 21.392C122.269 21.728 122.333 22.112 122.333 22.544C122.333 22.712 122.315 22.824 122.279 22.88C122.243 22.936 122.175 22.964 122.075 22.964H118.013C118.025 23.348 118.077 23.682 118.169 23.966C118.265 24.25 118.397 24.488 118.565 24.68C118.733 24.868 118.933 25.01 119.165 25.106C119.397 25.198 119.657 25.244 119.945 25.244C120.213 25.244 120.443 25.214 120.635 25.154C120.831 25.09 120.999 25.022 121.139 24.95C121.279 24.878 121.395 24.812 121.487 24.752C121.583 24.688 121.665 24.656 121.733 24.656C121.821 24.656 121.889 24.69 121.937 24.758L122.237 25.148ZM129.529 25.25C129.929 25.25 130.245 25.158 130.477 24.974C130.709 24.786 130.825 24.53 130.825 24.206C130.825 24.062 130.803 23.932 130.759 23.816C130.715 23.696 130.643 23.592 130.543 23.504C130.443 23.416 130.309 23.348 130.141 23.3C129.977 23.252 129.775 23.228 129.535 23.228H128.221V25.25H129.529ZM128.221 20.642V22.55H129.391C129.567 22.55 129.729 22.526 129.877 22.478C130.029 22.426 130.159 22.356 130.267 22.268C130.375 22.176 130.459 22.068 130.519 21.944C130.579 21.816 130.609 21.676 130.609 21.524C130.609 21.412 130.589 21.304 130.549 21.2C130.509 21.092 130.441 20.998 130.345 20.918C130.249 20.834 130.123 20.768 129.967 20.72C129.811 20.668 129.619 20.642 129.391 20.642H128.221ZM129.421 19.922C129.797 19.922 130.119 19.96 130.387 20.036C130.655 20.112 130.875 20.216 131.047 20.348C131.219 20.476 131.345 20.628 131.425 20.804C131.505 20.98 131.545 21.168 131.545 21.368C131.545 21.5 131.527 21.638 131.491 21.782C131.455 21.926 131.391 22.064 131.299 22.196C131.211 22.328 131.089 22.448 130.933 22.556C130.781 22.66 130.589 22.742 130.357 22.802C130.821 22.882 131.179 23.044 131.431 23.288C131.683 23.528 131.809 23.846 131.809 24.242C131.809 24.538 131.749 24.796 131.629 25.016C131.513 25.232 131.351 25.414 131.143 25.562C130.939 25.71 130.699 25.82 130.423 25.892C130.147 25.964 129.851 26 129.535 26H127.195V19.922H129.421Z" fill="white"/>
<path d="M75.33 42.6L73.35 37.34C73.19 36.9333 73.0267 36.4167 72.86 35.79C72.7867 36.1033 72.7067 36.3933 72.62 36.66C72.5333 36.92 72.4533 37.15 72.38 37.35L70.4 42.6H75.33ZM79.76 48H77.95C77.7433 48 77.5767 47.95 77.45 47.85C77.3233 47.7433 77.2267 47.6133 77.16 47.46L75.96 44.28H69.76L68.56 47.46C68.5067 47.5933 68.4133 47.7167 68.28 47.83C68.1467 47.9433 67.98 48 67.78 48H65.97L71.68 33.6H74.05L79.76 48ZM83.5514 45.44C83.8514 45.8267 84.1781 46.1 84.5314 46.26C84.8914 46.4133 85.2881 46.49 85.7214 46.49C86.5614 46.49 87.2147 46.1833 87.6814 45.57C88.1547 44.9567 88.3914 44.0433 88.3914 42.83C88.3914 42.2033 88.3381 41.67 88.2314 41.23C88.1247 40.7833 87.9714 40.42 87.7714 40.14C87.5714 39.86 87.3281 39.6567 87.0414 39.53C86.7547 39.4033 86.4314 39.34 86.0714 39.34C85.5247 39.34 85.0514 39.46 84.6514 39.7C84.2581 39.9333 83.8914 40.27 83.5514 40.71V45.44ZM83.4414 39.28C83.8681 38.78 84.3514 38.3767 84.8914 38.07C85.4381 37.7633 86.0714 37.61 86.7914 37.61C87.3647 37.61 87.8847 37.7267 88.3514 37.96C88.8181 38.1867 89.2181 38.52 89.5514 38.96C89.8847 39.4 90.1414 39.9467 90.3214 40.6C90.5081 41.2467 90.6014 41.99 90.6014 42.83C90.6014 43.5833 90.4981 44.2867 90.2914 44.94C90.0914 45.5867 89.8014 46.15 89.4214 46.63C89.0414 47.1033 88.5814 47.4767 88.0414 47.75C87.5014 48.0167 86.8914 48.15 86.2114 48.15C85.6114 48.15 85.1014 48.0533 84.6814 47.86C84.2681 47.6667 83.8914 47.4 83.5514 47.06V51.39H81.4014V37.8H82.7014C82.9947 37.8 83.1814 37.9367 83.2614 38.21L83.4414 39.28ZM95.2405 45.44C95.5405 45.8267 95.8671 46.1 96.2205 46.26C96.5805 46.4133 96.9771 46.49 97.4105 46.49C98.2505 46.49 98.9038 46.1833 99.3705 45.57C99.8438 44.9567 100.08 44.0433 100.08 42.83C100.08 42.2033 100.027 41.67 99.9205 41.23C99.8138 40.7833 99.6605 40.42 99.4605 40.14C99.2605 39.86 99.0171 39.6567 98.7305 39.53C98.4438 39.4033 98.1205 39.34 97.7605 39.34C97.2138 39.34 96.7405 39.46 96.3405 39.7C95.9471 39.9333 95.5805 40.27 95.2405 40.71V45.44ZM95.1305 39.28C95.5571 38.78 96.0405 38.3767 96.5805 38.07C97.1271 37.7633 97.7605 37.61 98.4805 37.61C99.0538 37.61 99.5738 37.7267 100.04 37.96C100.507 38.1867 100.907 38.52 101.24 38.96C101.574 39.4 101.83 39.9467 102.01 40.6C102.197 41.2467 102.29 41.99 102.29 42.83C102.29 43.5833 102.187 44.2867 101.98 44.94C101.78 45.5867 101.49 46.15 101.11 46.63C100.73 47.1033 100.27 47.4767 99.7305 47.75C99.1905 48.0167 98.5805 48.15 97.9005 48.15C97.3005 48.15 96.7905 48.0533 96.3705 47.86C95.9571 47.6667 95.5805 47.4 95.2405 47.06V51.39H93.0905V37.8H94.3905C94.6838 37.8 94.8705 37.9367 94.9505 38.21L95.1305 39.28ZM118.09 36.06C118.017 36.18 117.94 36.27 117.86 36.33C117.78 36.3833 117.68 36.41 117.56 36.41C117.433 36.41 117.29 36.3567 117.13 36.25C116.977 36.1433 116.783 36.0267 116.55 35.9C116.323 35.7667 116.053 35.6467 115.74 35.54C115.427 35.4267 115.053 35.37 114.62 35.37C114.22 35.37 113.867 35.42 113.56 35.52C113.26 35.62 113.007 35.76 112.8 35.94C112.593 36.12 112.437 36.3333 112.33 36.58C112.23 36.82 112.18 37.0833 112.18 37.37C112.18 37.7367 112.277 38.0433 112.47 38.29C112.663 38.53 112.917 38.7367 113.23 38.91C113.55 39.0833 113.913 39.2367 114.32 39.37C114.727 39.4967 115.14 39.6333 115.56 39.78C115.987 39.9267 116.403 40.0933 116.81 40.28C117.217 40.4667 117.577 40.7033 117.89 40.99C118.21 41.2767 118.467 41.6267 118.66 42.04C118.853 42.4533 118.95 42.9567 118.95 43.55C118.95 44.19 118.84 44.79 118.62 45.35C118.4 45.91 118.08 46.4 117.66 46.82C117.247 47.2333 116.733 47.56 116.12 47.8C115.513 48.04 114.82 48.16 114.04 48.16C113.58 48.16 113.13 48.1133 112.69 48.02C112.257 47.9333 111.84 47.81 111.44 47.65C111.047 47.4833 110.677 47.2833 110.33 47.05C109.983 46.8167 109.673 46.5567 109.4 46.27L110.08 45.15C110.14 45.0567 110.217 44.9833 110.31 44.93C110.403 44.8767 110.507 44.85 110.62 44.85C110.773 44.85 110.943 44.9233 111.13 45.07C111.317 45.21 111.54 45.3667 111.8 45.54C112.067 45.7067 112.387 45.8633 112.76 46.01C113.133 46.15 113.58 46.22 114.1 46.22C114.947 46.22 115.6 46.0133 116.06 45.6C116.527 45.1867 116.76 44.6167 116.76 43.89C116.76 43.4833 116.663 43.1533 116.47 42.9C116.277 42.64 116.02 42.4233 115.7 42.25C115.387 42.0767 115.027 41.93 114.62 41.81C114.213 41.69 113.8 41.5633 113.38 41.43C112.96 41.29 112.547 41.13 112.14 40.95C111.733 40.7633 111.37 40.5233 111.05 40.23C110.737 39.93 110.483 39.5633 110.29 39.13C110.097 38.69 110 38.1433 110 37.49C110 36.97 110.1 36.4667 110.3 35.98C110.507 35.4933 110.803 35.0633 111.19 34.69C111.583 34.31 112.067 34.0067 112.64 33.78C113.213 33.5533 113.867 33.44 114.6 33.44C115.427 33.44 116.183 33.57 116.87 33.83C117.563 34.09 118.16 34.46 118.66 34.94L118.09 36.06ZM124.299 48.16C123.452 48.16 122.799 47.9233 122.339 47.45C121.885 46.97 121.659 46.2967 121.659 45.43V39.49H120.539C120.419 39.49 120.315 39.4533 120.229 39.38C120.142 39.3 120.099 39.1833 120.099 39.03V38.16L121.749 37.92L122.219 34.97C122.252 34.8567 122.309 34.7667 122.389 34.7C122.469 34.6267 122.575 34.59 122.709 34.59H123.809V37.94H126.639V39.49H123.809V45.28C123.809 45.6467 123.899 45.9267 124.079 46.12C124.259 46.3133 124.499 46.41 124.799 46.41C124.965 46.41 125.109 46.39 125.229 46.35C125.349 46.3033 125.452 46.2567 125.539 46.21C125.625 46.1567 125.699 46.11 125.759 46.07C125.825 46.0233 125.889 46 125.949 46C126.069 46 126.165 46.0667 126.239 46.2L126.879 47.25C126.545 47.5433 126.152 47.77 125.699 47.93C125.245 48.0833 124.779 48.16 124.299 48.16ZM133.065 37.64C133.819 37.64 134.499 37.7633 135.105 38.01C135.719 38.2567 136.239 38.6067 136.665 39.06C137.099 39.5133 137.432 40.0633 137.665 40.71C137.899 41.3567 138.015 42.0833 138.015 42.89C138.015 43.6967 137.899 44.4233 137.665 45.07C137.432 45.7167 137.099 46.27 136.665 46.73C136.239 47.1833 135.719 47.5333 135.105 47.78C134.499 48.0267 133.819 48.15 133.065 48.15C132.305 48.15 131.619 48.0267 131.005 47.78C130.399 47.5333 129.879 47.1833 129.445 46.73C129.012 46.27 128.679 45.7167 128.445 45.07C128.212 44.4233 128.095 43.6967 128.095 42.89C128.095 42.0833 128.212 41.3567 128.445 40.71C128.679 40.0633 129.012 39.5133 129.445 39.06C129.879 38.6067 130.399 38.2567 131.005 38.01C131.619 37.7633 132.305 37.64 133.065 37.64ZM133.065 46.47C133.985 46.47 134.669 46.1633 135.115 45.55C135.569 44.93 135.795 44.0467 135.795 42.9C135.795 41.7533 135.569 40.87 135.115 40.25C134.669 39.6233 133.985 39.31 133.065 39.31C132.132 39.31 131.439 39.6233 130.985 40.25C130.532 40.87 130.305 41.7533 130.305 42.9C130.305 44.0467 130.532 44.93 130.985 45.55C131.439 46.1633 132.132 46.47 133.065 46.47ZM142.511 39.69C142.831 39.0433 143.218 38.5367 143.671 38.17C144.124 37.7967 144.668 37.61 145.301 37.61C145.521 37.61 145.728 37.6367 145.921 37.69C146.114 37.7367 146.288 37.81 146.441 37.91L146.291 39.53C146.264 39.6433 146.221 39.7233 146.161 39.77C146.108 39.81 146.034 39.83 145.941 39.83C145.841 39.83 145.698 39.8133 145.511 39.78C145.324 39.74 145.128 39.72 144.921 39.72C144.621 39.72 144.354 39.7633 144.121 39.85C143.894 39.9367 143.688 40.0633 143.501 40.23C143.321 40.3967 143.161 40.6 143.021 40.84C142.881 41.08 142.751 41.3533 142.631 41.66V48H140.481V37.8H141.731C141.958 37.8 142.114 37.8433 142.201 37.93C142.288 38.01 142.348 38.1533 142.381 38.36L142.511 39.69ZM154.602 41.75C154.602 41.39 154.549 41.0567 154.442 40.75C154.342 40.4367 154.192 40.1667 153.992 39.94C153.792 39.7067 153.542 39.5267 153.242 39.4C152.949 39.2667 152.609 39.2 152.222 39.2C151.442 39.2 150.829 39.4233 150.382 39.87C149.936 40.3167 149.652 40.9433 149.532 41.75H154.602ZM149.472 43.07C149.499 43.65 149.589 44.1533 149.742 44.58C149.896 45 150.099 45.35 150.352 45.63C150.612 45.91 150.919 46.12 151.272 46.26C151.632 46.3933 152.032 46.46 152.472 46.46C152.892 46.46 153.256 46.4133 153.562 46.32C153.869 46.22 154.136 46.1133 154.362 46C154.589 45.88 154.782 45.7733 154.942 45.68C155.102 45.58 155.249 45.53 155.382 45.53C155.556 45.53 155.689 45.5967 155.782 45.73L156.392 46.52C156.139 46.82 155.852 47.0733 155.532 47.28C155.212 47.4867 154.872 47.6567 154.512 47.79C154.152 47.9167 153.782 48.0067 153.402 48.06C153.022 48.12 152.652 48.15 152.292 48.15C151.586 48.15 150.929 48.0333 150.322 47.8C149.722 47.56 149.199 47.21 148.752 46.75C148.312 46.29 147.966 45.72 147.712 45.04C147.466 44.36 147.342 43.5767 147.342 42.69C147.342 41.9833 147.452 41.3233 147.672 40.71C147.899 40.0967 148.219 39.5633 148.632 39.11C149.052 38.6567 149.559 38.3 150.152 38.04C150.752 37.7733 151.429 37.64 152.182 37.64C152.809 37.64 153.389 37.7433 153.922 37.95C154.456 38.15 154.916 38.4467 155.302 38.84C155.689 39.2333 155.989 39.7167 156.202 40.29C156.422 40.8567 156.532 41.5033 156.532 42.23C156.532 42.5633 156.496 42.7867 156.422 42.9C156.349 43.0133 156.216 43.07 156.022 43.07H149.472Z" fill="white"/>
<defs>
<clipPath id="clip0">
<rect x="24" y="18" width="26" height="30" fill="white"/>
</clipPath>
</defs>
</svg>