<?xml version="1.0" encoding="UTF-8"?> <svg xmlns="http://www.w3.org/2000/svg" width="512" height="484" viewBox="0 0 512 484" fill="none"> <path d="M484.827 143.974H398.002C383.019 143.974 370.829 156.17 370.829 171.162V271.096H338.353C340.158 264.535 340.827 256.796 340.388 247.79V247.789C339.683 209.73 332.777 177.654 319.86 152.452C309.83 132.885 298.125 121.154 288.081 114.141C299.87 102.02 306.686 84.777 306.686 64.89C306.686 29.109 278.143 0 243.06 0C207.977 0 179.434 29.109 179.434 64.89C179.434 69.033 182.792 72.39 186.934 72.39H192.03C191.561 75.22 191.311 78.104 191.311 81.033C191.311 106.249 209.329 127.324 233.151 132.047C230.654 141.319 229.413 152.252 229.418 164.672L210.712 180.761L165.197 184.442L112.694 167.086C107.882 165.486 102.428 163.678 97.696 167.09C93.033 170.455 93.033 176.346 93.033 178.281V217.316C93.033 221.459 96.391 224.816 100.533 224.816H109.462L95.767 272.14C94.616 276.118 96.908 280.278 100.887 281.429C104.868 282.586 109.025 280.288 110.177 276.31L125.079 224.816H146.401C119.881 305.688 135.013 359.67 158.272 414.301H144.79L88.637 351.515L100.511 310.495C101.663 306.516 99.371 302.357 95.392 301.206C91.413 300.055 87.254 302.347 86.102 306.325L74.745 345.562C39.619 344.976 8.19901 369.194 0.192011 404.037C-0.734989 408.073 1.78401 412.097 5.81901 413.025L16.466 415.475C13.746 443.727 32.351 470.382 60.725 476.913C65.034 477.906 69.38 478.396 73.696 478.396C84.34 478.396 94.797 475.412 104.046 469.615C114.901 462.813 122.989 452.813 127.366 440.995L135.767 442.928C138.27 443.507 140.644 443.8 143.016 442.523C145.223 441.335 146.69 439.19 147.24 436.769C147.768 434.314 148.17 431.819 148.449 429.301H305.307C310.323 460.488 336.858 483.997 368.549 483.997C400.24 483.997 426.776 460.488 431.792 429.301H437.516C437.516 429.301 438.652 429.314 438.911 429.314C441.056 429.314 444.154 429.076 446.698 426.488C447.971 425.193 449.465 422.876 449.35 419.195C449.139 412.152 448.082 405.347 446.278 398.879C452.252 362.611 446.504 340.522 437.983 323.235C443.37 319.704 446.942 313.62 446.942 306.708V286.095H484.825C499.808 286.095 511.998 273.899 511.998 258.907V171.161C512 156.17 499.811 143.974 484.827 143.974V143.974ZM96.081 456.907C86.48 462.924 75.12 464.837 64.092 462.298H64.091C43.793 457.626 30.251 439.013 31.238 418.887L112.591 437.611C109.225 445.536 103.53 452.239 96.081 456.907V456.907ZM133.609 427.041L16.944 400.195C25.947 375.541 50.175 359.221 76.658 360.625L133.809 424.526C133.759 425.369 133.693 426.207 133.609 427.041ZM246.894 296.346C244.717 302.088 244.717 309.167 244.717 318.966V347.268H217.254V308.44C217.254 264.542 241.212 256.719 251.964 255.428H325.493C325.197 265.391 322.949 272.473 318.681 276.968C313.707 282.206 305.196 284.758 292.66 284.77L265.739 284.798C256.139 284.799 249.799 288.683 246.894 296.346V296.346ZM244.717 362.267V380.175C244.649 380.175 244.579 380.175 244.507 380.175H191.234C191.833 374.621 193.563 370.323 196.404 367.349C200.63 362.927 206.582 362.267 209.754 362.267H244.717ZM325.162 240.429H256.955C254.216 231.81 251.774 222.372 249.766 212.672L270.503 199.212C281.823 191.861 287.712 181.474 286.66 170.713C285.728 161.174 279.243 152.653 270.139 149.006C261.825 145.676 252.876 146.722 244.967 151.779C245.619 144.605 246.833 138.201 248.589 132.765C251.786 132.435 254.961 131.81 258.079 130.893C264.426 129.419 270.291 127.07 275.586 123.955C290.031 132.585 321.801 160.577 325.162 240.429V240.429ZM194.983 57.391C198.52 33.427 218.732 15.001 243.06 15.001C269.872 15.001 291.686 37.382 291.686 64.891C291.686 87.265 280.957 105.298 263.657 113.234V73.771C263.657 66.938 261.042 58.556 248.588 57.422C248.362 57.401 248.135 57.391 247.908 57.391H194.983ZM206.312 81.034C206.312 78.074 206.649 75.183 207.312 72.391H247.54C248.003 72.441 248.341 72.495 248.583 72.544C248.622 72.822 248.656 73.222 248.656 73.771V117.647C246.869 117.91 245.071 118.043 243.274 118.044C243.257 118.044 243.24 118.044 243.224 118.044C222.868 118.025 206.312 101.43 206.312 81.034ZM196.589 196.954L214.353 195.517C215.936 195.39 217.437 194.763 218.642 193.728L250.702 166.153L250.707 166.148C253.807 163.477 257.116 162.107 260.338 162.107C261.772 162.107 263.189 162.379 264.562 162.929C268.525 164.516 271.339 168.144 271.733 172.17C272.228 177.237 268.89 182.373 262.337 186.629L226.612 209.817H196.591V196.954H196.589ZM164.893 199.518L181.589 198.168V209.819H162.188C159.673 209.819 159.06 207.729 158.988 205.976C158.947 204.982 159.041 199.998 164.893 199.518V199.518ZM147.142 194.34C144.883 198.044 143.828 202.377 144.001 206.59C144.046 207.681 144.185 208.732 144.379 209.756C144.379 209.777 144.367 209.798 144.371 209.818H108.035V181.345L147.171 194.282C147.159 194.302 147.153 194.321 147.142 194.34V194.34ZM162.23 224.818H228.831C230.28 224.818 231.699 224.398 232.914 223.609L236.309 221.405C237.942 228.623 239.802 235.647 241.828 242.281C226.532 246.796 202.253 261.387 202.253 308.439V348.02C196.991 349.082 190.766 351.536 185.559 356.985C180.07 362.729 176.935 370.512 176.183 380.174H161.053C145.807 336.236 140.009 289.48 162.23 224.818V224.818ZM174.592 414.276C171.82 407.901 169.148 401.55 166.632 395.175H244.506C254.599 395.175 259.716 390.58 259.716 381.519V354.767V326.465H318.915C323.058 326.465 326.415 323.108 326.415 318.965C326.415 314.822 323.058 311.465 318.915 311.465H259.77C259.866 307.205 260.139 303.721 260.92 301.663C261.299 300.662 261.627 299.798 265.746 299.798L292.674 299.77C309.539 299.754 321.604 295.674 329.559 287.296C329.927 286.908 330.275 286.501 330.624 286.096H378.33H431.945V306.709C431.945 309.287 429.772 311.465 427.2 311.465H352.535C348.392 311.465 345.035 314.822 345.035 318.965C345.035 323.108 348.392 326.465 352.535 326.465H422.793C428.721 337.468 434.053 351.159 433.736 372.79C418.898 352.179 394.877 338.926 367.615 338.926C345.721 338.926 325.177 347.514 309.766 363.109C296.091 376.946 287.878 394.905 286.188 414.301L174.592 414.276ZM368.55 468.999C345.104 468.999 325.33 452.106 320.546 429.303H416.554C411.769 452.104 391.995 468.999 368.55 468.999V468.999ZM425.074 414.303H312.028H301.253C304.935 380.39 333.291 353.926 367.615 353.926C397.75 353.926 423.057 373.797 431.438 401.614C431.465 401.702 431.492 401.79 431.522 401.877C432.707 405.868 433.544 410.022 433.997 414.303H425.074ZM497 258.908C497 265.629 491.539 271.096 484.827 271.096H385.829V232.365H497V258.908ZM497 217.365H385.829V201.414H497V217.365ZM497 186.414H385.829V171.162C385.829 164.441 391.29 158.974 398.002 158.974H484.827C491.539 158.974 497 164.442 497 171.162V186.414Z" fill="#117243"></path> </svg> 