<svg width="894" height="634" viewBox="0 0 894 634" fill="none" xmlns="http://www.w3.org/2000/svg">
<path d="M792.674 633.208H91.0372C87.3744 633.198 83.8648 631.737 81.2748 629.146C78.6849 626.555 77.2251 623.044 77.2144 619.379C77.2251 615.715 78.6849 612.203 81.2748 609.612C83.8648 607.021 87.3744 605.561 91.0372 605.55H792.674C796.337 605.561 799.846 607.021 802.436 609.612C805.026 612.203 806.486 615.715 806.497 619.379C806.486 623.044 805.026 626.555 802.436 629.146C799.846 631.737 796.337 633.198 792.674 633.208Z" fill="#EBEAE7"/>
<path d="M783.378 127.949C818.303 108.09 815.963 151.281 798.869 212.407C781.775 273.534 802.776 262.794 822.36 239.143C841.944 215.491 863.559 244.849 823.224 301.23C782.889 357.612 764.415 374.126 784.019 380.233C803.623 386.339 856.095 314.854 874.245 339.747C892.395 364.641 753.374 534.765 689.872 523.003C626.37 511.24 596.347 370.769 646.447 349.14C696.547 327.512 684.028 385.965 708.953 364.156C733.879 342.346 668.939 287.914 705.178 248.428C741.417 208.943 736.882 271.13 756.523 245.537C776.164 219.944 733.987 156.034 783.378 127.949Z" fill="#F5F5F5"/>
<path d="M880.083 313.948C906.868 322.513 891.024 350.242 860.662 380.806C830.3 411.371 846.003 417.334 865.223 413.674C884.443 410.015 887.043 443.474 844.884 456.196C802.725 468.918 786.539 468.451 795.784 484.924C805.029 501.397 859.249 486.106 861.351 514.365C863.453 542.624 726.268 570.109 693.631 522.17C660.995 474.232 690.841 360.352 726.962 377.276C763.084 394.199 736.255 425.838 757.934 426.787C779.613 427.736 760.468 350.043 794.597 346.165C828.726 342.287 805.243 381.477 825.148 376.541C845.052 371.605 842.202 301.836 880.083 313.948Z" fill="#E9E9E9"/>
<path opacity="0.99" d="M888.188 400.088C873.947 380.758 855.864 401.152 839.455 434.067C823.046 466.981 813.936 455.906 811.642 439.357C809.349 422.808 781.593 429.846 782.83 467.43C784.066 505.014 788.865 517.981 773.024 515.002C757.184 512.024 754.729 463.98 731.314 470.001C707.898 476.022 723.165 594.517 770.83 607.823C818.495 621.129 902.387 565.868 878.838 541.268C855.29 516.669 837.048 547.019 830.357 529.74C823.667 512.46 891.695 506.721 885.505 478.05C879.315 449.379 854.054 479.085 852.606 461.633C851.157 444.181 908.328 427.425 888.188 400.088Z" fill="#CCCCCC"/>
<path d="M49.4474 271.103C62.0333 250.656 81.7486 269.476 100.835 300.912C119.922 332.348 128.081 320.554 128.991 303.871C129.902 287.189 158.146 291.895 160.036 329.451C161.927 367.008 158.221 380.329 173.76 376.043C189.298 371.758 187.753 323.677 211.588 327.729C235.423 331.782 230.053 451.137 183.658 468.36C137.263 485.584 49.071 437.49 70.4941 411.017C91.9171 384.545 112.618 413.273 117.85 395.497C123.081 377.721 54.8113 377.658 58.5984 348.572C62.3855 319.486 90.0266 346.989 90.0202 329.477C90.0139 311.964 31.6482 300.02 49.4474 271.103Z" fill="#E9E9E9"/>
<path d="M202.214 91.75C173.638 86.5122 174.586 119.497 187.386 162.135C200.186 204.774 182.975 202.561 167.24 189.867C151.505 177.173 132.857 206.4 165.088 238.523C197.32 270.645 212.297 278.101 195.858 288.612C179.419 299.122 137.446 258.784 121.783 283.514C106.119 308.244 217.767 400.093 270.831 372.297C323.895 344.502 352.098 226.189 310.947 224.022C269.795 221.855 278.853 263.753 258.635 254.061C238.417 244.37 293.661 182.889 264.445 162.736C235.229 142.583 237.564 189.733 221.826 175.542C206.088 161.351 242.627 99.1573 202.214 91.75Z" fill="#F5F5F5"/>
<path d="M0.853931 455.472C4.02684 431.669 29.6934 440.826 59.9211 461.762C90.1488 482.699 92.7999 468.603 86.8415 452.995C80.8832 437.387 108.595 430.179 125.608 463.711C142.62 497.242 144.658 510.919 157.105 500.675C169.553 490.43 148.572 447.146 171.991 441.137C195.409 435.129 239.084 546.328 203.72 580.959C168.356 615.59 68.2317 607.593 77.0237 574.687C85.8156 541.781 116.415 559.586 113.958 541.219C111.502 522.853 49.1225 550.608 40.7429 522.499C32.3633 494.391 68.8029 508.25 61.6695 492.258C54.5361 476.266 -3.63328 489.134 0.853931 455.472Z" fill="#F5F5F5"/>
<path d="M337.24 436.294H96.8262V607.267H337.24V436.294Z" fill="url(#paint0_linear)"/>
<path d="M236.041 436.294H198.025V464.546H236.041V436.294Z" fill="#DF4640"/>
<path d="M236.041 579.015H198.025V607.267H236.041V579.015Z" fill="#DF4640"/>
<path d="M295.066 310.05H155.851V436.294H295.066V310.05Z" fill="url(#paint1_linear)"/>
<path d="M236.465 310.05H214.451V330.911H236.465V310.05Z" fill="#DF4640"/>
<path d="M236.465 415.433H214.451V436.294H236.465V415.433Z" fill="#DF4640"/>
<path opacity="0.3" d="M769.333 194.805L769.326 194.807C778.235 176.427 782.851 156.262 782.823 135.835C782.823 61.1147 722.278 0.541428 647.591 0.541428C572.905 0.541428 512.359 61.1147 512.359 135.835C512.332 156.262 516.948 176.428 525.857 194.807L525.85 194.805L647.591 430.39L769.333 194.805ZM647.591 56.2053C691.55 56.2053 727.185 91.8568 727.185 135.835C727.185 179.814 691.55 215.466 647.591 215.466C603.633 215.466 567.998 179.814 567.998 135.835C567.998 91.8568 603.633 56.2053 647.591 56.2053Z" fill="url(#paint2_linear)"/>
<path d="M298.175 31.2541H496.836C507.604 31.2541 517.932 35.5337 525.546 43.1515C533.16 50.7693 537.438 61.1013 537.438 71.8745V576.23C537.438 581.564 536.388 586.846 534.347 591.774C532.307 596.703 529.316 601.181 525.546 604.953C521.776 608.724 517.3 611.717 512.374 613.758C507.448 615.799 502.168 616.85 496.836 616.85H286.05C280.718 616.85 275.438 615.799 270.512 613.758C265.586 611.717 261.11 608.724 257.34 604.953C253.57 601.181 250.579 596.703 248.539 591.774C246.498 586.846 245.448 581.564 245.448 576.23V84.0055C245.448 70.015 251.003 56.5975 260.892 46.7046C270.78 36.8118 284.191 31.2541 298.175 31.2541Z" fill="#4D4D4D"/>
<path d="M491.983 44.4879H457.244C454.248 44.4879 451.374 45.6788 449.255 47.7987C447.136 49.9186 445.946 52.7938 445.946 55.7918V65.1657C445.94 67.0895 445.174 68.9329 443.814 70.2932C442.454 71.6536 440.612 72.4203 438.689 72.4259H355.648C353.725 72.4203 351.883 71.6536 350.523 70.2932C349.163 68.9329 348.397 67.0895 348.391 65.1657V55.7918C348.391 54.3073 348.099 52.8374 347.531 51.466C346.963 50.0945 346.131 48.8484 345.082 47.7987C344.033 46.749 342.787 45.9164 341.416 45.3483C340.046 44.7802 338.576 44.4879 337.093 44.4879H303.028C278.516 44.4879 258.46 64.5524 258.46 89.0757V570.642C258.46 588.494 273.059 603.099 290.902 603.099H491.983C509.826 603.099 524.424 588.494 524.424 570.642V76.9447C524.424 59.0935 509.826 44.4879 491.983 44.4879Z" fill="white"/>
<path d="M308.601 161.648L310.311 51.7379H303.029C293.141 51.7724 283.669 55.7173 276.677 62.712C269.686 69.7068 265.742 79.1838 265.708 89.0758V161.648H308.601Z" fill="#ECECEC"/>
<path d="M306.527 295.008L308.534 165.974H265.708V273.857L306.527 295.008Z" fill="#F5F5F5"/>
<path d="M517.179 404.16V368.681L515.02 280.506H421.328L426.815 357.336L517.179 404.16Z" fill="#ECECEC"/>
<path d="M427.609 368.463L434.556 465.745H517.179V414.875L427.609 368.463Z" fill="#F5F5F5"/>
<path d="M517.179 209.74V95.7105L413.007 162.821L517.179 209.74Z" fill="#F5F5F5"/>
<path d="M517.179 501.642V470.91H434.725V526.542L517.179 501.642Z" fill="#F5F5F5"/>
<path d="M269.812 584.407C272.099 587.919 275.226 590.804 278.908 592.802C282.591 594.8 286.714 595.847 290.903 595.849H303.982V574.089L269.812 584.407Z" fill="#F5F5F5"/>
<path d="M434.725 534.605V595.849H491.984C498.664 595.842 505.068 593.184 509.791 588.458C514.515 583.732 517.172 577.325 517.179 570.642V509.705L434.725 534.605Z" fill="#F5F5F5"/>
<path d="M399.207 99.9963L397.611 79.6759H355.649C351.804 79.6716 348.118 78.1414 345.399 75.4212C342.68 72.7009 341.15 69.0127 341.146 65.1657V55.7918C341.145 54.717 340.717 53.6866 339.958 52.9266C339.198 52.1666 338.168 51.7391 337.094 51.7379H316.992L316.305 99.9963H399.207Z" fill="#F5F5F5"/>
<path d="M399.554 104.408H316.242L315.427 161.648H404.051L399.554 104.408Z" fill="#F5F5F5"/>
<path d="M393.647 470.91V538.947L427.609 528.691V470.91H393.647Z" fill="#F5F5F5"/>
<path d="M421.693 386.207L419.989 364.515L369.354 338.277V386.207H421.693Z" fill="#F5F5F5"/>
<path d="M369.354 390.618V465.745H427.943L422.04 390.618H369.354Z" fill="#F5F5F5"/>
<path d="M467.049 51.7379H457.245C456.171 51.7391 455.141 52.1666 454.381 52.9266C453.622 53.6866 453.194 54.717 453.193 55.7918V65.1657C453.189 69.0127 451.659 72.7009 448.94 75.4212C446.221 78.1414 442.535 79.6716 438.689 79.6759H401.911L408.766 160.408L467.049 122.861V51.7379Z" fill="#F5F5F5"/>
<path d="M491.983 51.7379H471.458V120.02L517.178 90.5657V76.9448C517.171 70.2618 514.514 63.8548 509.79 59.1292C505.067 54.4036 498.663 51.7455 491.983 51.7379Z" fill="#F5F5F5"/>
<path d="M354.823 558.735L311.098 571.94V595.849H354.823V558.735Z" fill="#F5F5F5"/>
<path d="M359.231 557.404V595.849H427.609V536.755L359.231 557.404Z" fill="#F5F5F5"/>
<path d="M389.239 470.91H311.098V507.527H389.239V470.91Z" fill="#F5F5F5"/>
<path d="M303.982 470.91H265.708V507.527H303.982V470.91Z" fill="#ECECEC"/>
<path d="M311.098 511.938V563.876L389.24 540.278V511.938H311.098Z" fill="#F5F5F5"/>
<path d="M265.708 511.938V570.642C265.708 572.896 266.012 575.138 266.61 577.311L303.982 566.025V511.938H265.708Z" fill="#ECECEC"/>
<path d="M311.629 428.487L311.098 465.745H364.341V428.487H311.629Z" fill="#F5F5F5"/>
<path d="M364.34 335.679L306.362 305.637L265.708 284.572V465.745H303.871L304.474 424.075H364.34V335.679Z" fill="#F5F5F5"/>
<path d="M461.75 189.519V271.559H517.179V214.484L461.75 189.519Z" fill="#F5F5F5"/>
<path d="M457.34 187.533L409.229 165.864L418.204 271.559H457.34V187.533Z" fill="#F5F5F5"/>
<path d="M409.286 228.285L404.631 169.036L315.365 165.974L314.715 228.285H409.286Z" fill="#ECECEC"/>
<path d="M314.669 232.696L313.979 298.869L419.112 353.345L409.633 232.696H314.669Z" fill="#ECECEC"/>
<path d="M758.466 316.204C758.466 316.204 759.937 312.795 761.849 313.511C763.76 314.228 764.864 314.56 766.224 313.511C767.584 312.462 772.436 312.311 773.907 314.888C775.377 317.464 777.289 312.795 778.612 313.511C779.936 314.228 782.289 317.464 783.759 317.317C785.23 317.17 788.354 315.546 791.865 329.01C793.759 335.854 786.847 342.18 785.23 342.033C783.612 341.886 783.224 340.562 782.315 341.445C781.406 342.328 778.76 343.946 776.995 343.799C775.23 343.652 773.319 340.034 773.025 340.077C772.73 340.121 771.26 343.337 769.348 343.127C767.437 342.916 765.084 340.034 764.643 340.077C764.201 340.121 758.687 344.534 753.945 337.031C753.945 337.031 751.408 328.184 758.466 316.204Z" fill="#F9A186"/>
<path opacity="0.5" d="M788.715 327.118C788.053 324.95 785.076 324.762 786.289 328.881C787.363 332.528 782.192 340.625 780.991 342.437C781.464 342.15 781.907 341.818 782.314 341.445C782.777 340.995 783.106 341.119 783.53 341.368C786.356 336.8 789.236 328.823 788.715 327.118Z" fill="#EE8C74"/>
<path opacity="0.5" d="M779.727 327.118C779.066 324.95 776.088 324.762 777.301 328.881C778.484 332.897 772.027 341.378 771.704 341.8C772.394 340.987 772.87 340.1 773.024 340.077C773.161 340.057 773.649 340.828 774.306 341.673C777.525 337.724 780.333 329.104 779.727 327.118Z" fill="#EE8C74"/>
<path opacity="0.5" d="M764.642 340.077C764.787 340.063 765.142 340.368 765.619 340.789C768.764 336.88 771.341 329.092 770.738 327.118C770.077 324.95 767.099 324.762 768.312 328.881C769.446 332.731 764.644 339.524 764.012 340.394C764.213 340.271 764.423 340.165 764.642 340.077Z" fill="#EE8C74"/>
<path d="M731.044 313.511C731.044 313.511 748.132 316.559 758.467 316.204C758.467 316.204 752.29 325.078 753.945 337.031H728.721L731.044 313.511Z" fill="#EE8C74"/>
<path d="M441.717 319.326V415.559C441.732 420.617 443.747 425.464 447.322 429.04C450.896 432.617 455.741 434.633 460.797 434.648H547.293C552.349 434.633 557.193 432.617 560.768 429.04C564.343 425.464 566.358 420.617 566.373 415.559V319.326H441.717Z" fill="#FF5C4B"/>
<path d="M472.717 319.326V415.559C472.732 420.617 474.747 425.464 478.322 429.04C481.897 432.617 486.741 434.633 491.797 434.648H547.294C552.349 434.633 557.194 432.617 560.769 429.04C564.344 425.464 566.359 420.617 566.374 415.559V319.326H472.717Z" fill="url(#paint3_linear)"/>
<path d="M548.059 290.836H460.032C449.352 290.836 440.614 299.426 440.614 309.925V319.326H567.476V309.925C567.476 299.426 558.738 290.836 548.059 290.836Z" fill="#FF5C4B"/>
<path d="M548.059 290.836H491.581C480.901 290.836 472.164 299.426 472.164 309.925V319.326H567.477V309.925C567.477 299.426 558.739 290.836 548.059 290.836Z" fill="url(#paint4_linear)"/>
<path d="M566.373 319.326H441.717V322.279H566.373V319.326Z" fill="#D03731"/>
<path d="M657.221 507.984C651.998 474.964 649.035 451.821 647.881 434.648H480.526C480.526 434.648 445.12 444.841 447.091 510.973C447.189 514.378 448.61 517.61 451.051 519.984C453.492 522.358 456.762 523.687 460.166 523.689H561.077C561.077 523.689 579.357 507.984 603.18 507.984H657.221Z" fill="url(#paint5_linear)"/>
<path d="M648.338 403.027C648.338 403.027 592.593 400.023 564.8 403.027C537.007 406.03 533.037 407.213 529.949 434.648L647.882 434.648L648.338 403.027Z" fill="#373131"/>
<path d="M806.497 561.336C806.497 594.146 790.836 620.744 757.339 620.744C723.842 620.744 704.701 594.146 704.701 561.336C704.701 528.525 727.489 499.316 755.599 499.316C787.356 499.316 806.497 528.525 806.497 561.336Z" fill="#3A3434"/>
<path d="M745.375 599.853C760.391 599.853 772.564 582.024 772.564 560.03C772.564 538.036 760.391 520.207 745.375 520.207C730.359 520.207 718.186 538.036 718.186 560.03C718.186 582.024 730.359 599.853 745.375 599.853Z" fill="#F6F0F0"/>
<path d="M745.376 598.112C759.191 598.112 770.39 581.062 770.39 560.03C770.39 538.998 759.191 521.948 745.376 521.948C731.561 521.948 720.362 538.998 720.362 560.03C720.362 581.062 731.561 598.112 745.376 598.112Z" fill="#CEB4B7"/>
<path d="M731.946 560.03C731.946 543.265 738.736 529.031 748.168 523.944C747.247 523.777 746.312 523.692 745.376 523.689C732.192 523.689 721.505 539.959 721.505 560.03C721.505 580.101 732.192 596.371 745.376 596.371C746.312 596.368 747.247 596.283 748.168 596.116C738.736 591.03 731.946 576.795 731.946 560.03Z" fill="#BA9A9D"/>
<path d="M744.103 548.002L711.859 501.222L699.195 509.959L731.439 556.739C732.304 557.993 735.839 557.054 739.336 554.642C742.833 552.229 744.967 549.257 744.103 548.002Z" fill="#514546"/>
<path d="M739.052 554.23C742.28 552.003 744.322 549.366 743.614 548.339C742.907 547.313 739.717 548.285 736.49 550.512C733.263 552.738 731.22 555.376 731.928 556.402C732.635 557.429 735.825 556.456 739.052 554.23Z" fill="#1A1A1A"/>
<path d="M748.203 560.248C748.203 557.931 746.663 556.042 744.723 555.908V555.895H744.687L740.731 550.083L740.729 550.085C740.484 549.737 738.927 550.381 737.246 551.526C735.562 552.674 734.391 553.891 734.631 554.243C734.632 554.245 734.635 554.246 734.636 554.248L737.602 558.605C737.42 559.133 737.327 559.689 737.327 560.248C737.327 562.651 738.983 564.6 741.025 564.6H744.723V564.587C746.663 564.454 748.203 562.565 748.203 560.248Z" fill="#514546"/>
<path d="M611.065 561.336C611.065 594.146 595.404 620.744 561.907 620.744C528.41 620.744 509.269 594.146 509.269 561.336C509.269 528.525 532.056 499.316 560.167 499.316C591.924 499.316 611.065 528.525 611.065 561.336Z" fill="#3A3434"/>
<path d="M549.943 599.853C564.959 599.853 577.132 582.024 577.132 560.03C577.132 538.036 564.959 520.207 549.943 520.207C534.927 520.207 522.754 538.036 522.754 560.03C522.754 582.024 534.927 599.853 549.943 599.853Z" fill="#F6F0F0"/>
<path d="M549.943 598.112C563.758 598.112 574.957 581.062 574.957 560.03C574.957 538.998 563.758 521.948 549.943 521.948C536.128 521.948 524.929 538.998 524.929 560.03C524.929 581.062 536.128 598.112 549.943 598.112Z" fill="#CEB4B7"/>
<path d="M536.513 560.03C536.513 543.265 543.303 529.031 552.736 523.944C551.814 523.777 550.879 523.692 549.943 523.689C536.759 523.689 526.072 539.959 526.072 560.03C526.072 580.101 536.759 596.371 549.943 596.371C550.879 596.368 551.814 596.283 552.736 596.116C543.303 591.03 536.513 576.795 536.513 560.03Z" fill="#BA9A9D"/>
<path d="M740.378 464.289C757.578 463.886 790.964 471.94 801.699 504.159C803.169 508.278 797.875 509.455 790.964 510.338C784.052 511.22 755.665 511.809 745.375 511.809H726.849C723.835 511.809 713.578 522.659 704.7 542.961C700.123 553.333 700.232 553.995 701.996 555.43C701.996 555.43 700.454 555.154 698.358 552.175C696.263 549.195 697.476 505.777 708.174 487.571C718.872 469.365 726.261 464.62 740.378 464.289Z" fill="url(#paint6_linear)"/>
<path d="M701.998 538.376C702.109 534.291 702.416 529.316 703.022 523.859C704.693 508.808 707.855 496.704 711.925 489.777C716.191 482.518 719.739 477.701 723.282 474.525C728.338 469.994 776.615 506.657 764.345 506.897C746.723 507.241 726.851 507.456 726.851 507.456C719.891 507.456 709.197 522.901 701.998 538.376Z" fill="#FF5C4B"/>
<path d="M680.161 555.43H588.842C582.666 555.43 562.87 529.684 561.077 523.689H520.104C520.104 523.689 527.963 555.895 531.492 564.6C535.021 573.305 541.557 575.511 552.737 575.511H651.045C659.868 575.511 664.721 574.629 680.161 555.43Z" fill="#373131"/>
<path d="M635.237 555.43H588.842C582.666 555.43 562.87 529.684 561.077 523.689H520.104C520.104 523.689 527.963 555.895 531.492 564.6C535.021 573.305 541.557 575.511 552.737 575.511H606.121C614.944 575.511 619.797 574.629 635.237 555.43Z" fill="#453C3D"/>
<path d="M588.843 555.429C586.055 555.429 580.494 550.186 575.066 543.881H542.595C534.213 543.881 534.58 552.909 535.524 556.947C538.039 567.706 542.222 571.159 552.737 571.159H606.121C610.744 571.159 614.002 566.628 619.931 555.429H588.843Z" fill="#594F4E"/>
<path d="M561.077 523.689C561.077 523.689 579.357 507.984 603.18 507.984H657.221C657.221 507.984 663.838 548.368 637.81 548.368H590.607C581.563 548.368 561.077 523.689 561.077 523.689Z" fill="#CCB2B3"/>
<path d="M755.598 374.252C728.026 341.151 669.974 349.095 657.973 374.252C645.972 399.41 642.001 411.768 657.221 507.984C657.221 507.984 663.838 548.368 637.81 548.368H590.607C581.563 548.368 561.077 523.689 561.077 523.689C562.87 529.684 582.666 555.43 588.842 555.43H701.997C701.997 555.43 700.454 555.154 698.359 552.175C696.263 549.195 697.476 505.777 708.174 487.571C718.872 469.365 726.262 464.62 740.379 464.289C754.359 463.961 779.032 469.221 793.544 488.502H793.544C793.544 488.502 783.171 407.354 755.598 374.252Z" fill="#D4BEC0"/>
<g opacity="0.5">
<path opacity="0.5" d="M663.397 521.948C664.072 499.481 655.897 475.102 653.471 418.388C651.225 365.887 689.091 353.965 689.148 353.947C674.703 357.03 662.726 364.289 657.973 374.252C645.971 399.41 642.001 411.768 657.221 507.984C657.221 507.984 663.838 548.368 637.81 548.368H590.607C581.563 548.368 561.077 523.689 561.077 523.689C562.87 529.684 582.666 555.429 588.842 555.429H639.795C657.441 549.471 662.956 536.635 663.397 521.948Z" fill="#E0D2D2"/>
</g>
<g opacity="0.5">
<path opacity="0.5" d="M689.151 353.946L697.468 352.663C694.674 352.933 691.897 353.361 689.151 353.946Z" fill="#E0D2D2"/>
</g>
<path d="M796.148 329.16L775.705 328.443V332.912L796.148 333.712C796.981 333.712 797.656 332.693 797.656 331.436C797.656 330.179 796.981 329.16 796.148 329.16Z" fill="url(#paint7_linear)"/>
<path d="M700.49 352.434L689.152 353.946C689.152 353.946 651.707 366.308 661.412 424.126C671.117 481.944 678.446 473.116 693.31 467.82C708.174 462.524 744.772 452.789 768.171 464.275C791.571 475.761 780.083 436.484 774.789 423.684C771.864 416.614 763.196 393.787 756.021 374.768C755.881 374.596 755.74 374.422 755.598 374.252C741.704 357.572 720.071 351.318 700.49 352.434Z" fill="#E0D2D2"/>
<path d="M770.634 325.335L766.417 324.518L766.417 324.519C765.677 320.721 763.566 317.979 761.076 317.979H757.841V319.715C756.396 321.439 755.451 324.284 755.451 327.505C755.451 330.726 756.396 333.571 757.841 335.296V337.031H761.076C762.062 337.005 763.003 336.609 763.711 335.922L763.711 335.922L770.358 336.296L770.359 336.282C770.451 336.286 770.541 336.296 770.634 336.296C771.366 336.315 772.094 336.188 772.775 335.921C773.457 335.654 774.078 335.254 774.602 334.743C775.127 334.232 775.543 333.621 775.828 332.947C776.112 332.272 776.259 331.548 776.259 330.815C776.259 330.083 776.112 329.359 775.828 328.684C775.543 328.009 775.127 327.399 774.602 326.888C774.078 326.377 773.457 325.977 772.775 325.71C772.094 325.443 771.366 325.316 770.634 325.335Z" fill="url(#paint8_linear)"/>
<path d="M767.399 325.335L763.182 324.518L763.182 324.519C762.442 320.721 760.331 317.979 757.841 317.979C754.734 317.979 752.216 322.244 752.216 327.505C752.216 332.766 754.734 337.031 757.841 337.031C758.827 337.005 759.767 336.609 760.475 335.922L760.475 335.922L767.123 336.296L767.124 336.282C767.216 336.286 767.306 336.296 767.399 336.296C768.13 336.315 768.859 336.188 769.54 335.921C770.222 335.654 770.843 335.254 771.367 334.743C771.891 334.232 772.308 333.621 772.593 332.947C772.877 332.272 773.024 331.548 773.024 330.815C773.024 330.083 772.877 329.359 772.593 328.684C772.308 328.009 771.891 327.399 771.367 326.888C770.843 326.377 770.222 325.977 769.54 325.71C768.859 325.443 768.13 325.316 767.399 325.335Z" fill="url(#paint9_linear)"/>
<path d="M722.646 354.397C711.652 351.775 700.213 351.62 689.151 353.946C689.151 353.946 702.219 368.216 715.931 476.057L715.935 476.055C723.113 467.224 729.888 464.535 740.378 464.289C743.133 464.239 745.889 464.371 748.627 464.685L748.634 464.682C748.634 464.682 745.06 400.893 722.646 354.397Z" fill="#D03731"/>
<path d="M692.538 353.314C692.878 353.81 708.768 377.397 718.894 472.736L718.895 472.745C725.054 466.532 731.336 464.501 740.379 464.289C743.134 464.238 745.89 464.37 748.628 464.684L748.635 464.682C748.635 464.682 745.061 400.893 722.647 354.397C712.781 352.047 702.547 351.678 692.538 353.314Z" fill="url(#paint10_linear)"/>
<path d="M653.913 335.192C653.913 335.192 667.181 334.53 677.311 335.192C687.44 335.854 688.438 345.115 689.152 353.946L721.061 353.947C721.061 353.947 716.557 335.045 732.659 334.898C732.659 334.898 752.29 335.634 755.709 335.854C759.128 336.075 761.003 331.441 760.893 327.91C760.783 324.379 759.68 319.965 755.158 319.745L732.769 318.09L708.947 299.994C708.947 299.994 696.594 299.332 685.786 311.028C677.311 320.848 650.494 318.641 650.494 318.641L653.913 335.192Z" fill="url(#paint11_linear)"/>
<path d="M677.311 335.192C683.386 335.589 686.175 339.081 687.589 343.716C692.018 344.467 695.957 345.534 698.763 347.035C710.316 353.218 719.365 345.711 720.843 344.366C721.755 339.659 724.671 334.971 732.659 334.898C732.659 334.898 752.29 335.634 755.709 335.854C759.128 336.075 761.003 331.441 760.892 327.91C760.866 326.883 760.738 325.862 760.511 324.861C743.446 339.162 732.659 322.886 732.659 322.886L692.133 317.979C668.151 333.059 650.494 318.641 650.494 318.641L653.913 335.192C653.913 335.192 667.181 334.53 677.311 335.192Z" fill="#DF4640"/>
<path d="M714.24 345.785C724.412 345.785 732.658 335.533 732.658 322.886C732.658 310.239 724.412 299.987 714.24 299.987C704.068 299.987 695.822 310.239 695.822 322.886C695.822 335.533 704.068 345.785 714.24 345.785Z" fill="url(#paint12_linear)"/>
<path d="M695.823 322.886C695.823 310.239 704.069 299.987 714.241 299.987H710.123C699.951 299.987 691.705 310.239 691.705 322.886C691.705 335.533 699.951 345.785 710.123 345.785H714.241C704.069 345.785 695.823 335.533 695.823 322.886Z" fill="#CAADB1"/>
<path d="M714.24 340.077C721.877 340.077 728.067 332.38 728.067 322.886C728.067 313.392 721.877 305.695 714.24 305.695C706.603 305.695 700.413 313.392 700.413 322.886C700.413 332.38 706.603 340.077 714.24 340.077Z" fill="url(#paint13_linear)"/>
<path d="M714.24 339.047C721.419 339.047 727.239 331.812 727.239 322.886C727.239 313.96 721.419 306.725 714.24 306.725C707.061 306.725 701.241 313.96 701.241 322.886C701.241 331.812 707.061 339.047 714.24 339.047Z" fill="url(#paint14_linear)"/>
<path d="M714.24 337.944C720.929 337.944 726.352 331.202 726.352 322.886C726.352 314.57 720.929 307.828 714.24 307.828C707.551 307.828 702.129 314.57 702.129 322.886C702.129 331.202 707.551 337.944 714.24 337.944Z" fill="url(#paint15_linear)"/>
<path opacity="0.5" d="M715.36 333.701C721.728 333.701 726.89 327.792 726.89 320.504C726.89 313.216 721.728 307.307 715.36 307.307C708.992 307.307 703.83 313.216 703.83 320.504C703.83 327.792 708.992 333.701 715.36 333.701Z" fill="white"/>
<path opacity="0.5" d="M726.538 322.056C726.422 327.78 725.624 321.921 718.893 320.504C714.24 319.524 707.972 327.611 707.972 319.048C707.972 310.484 707.427 309.109 714.369 308.006C721.162 306.926 726.711 313.494 726.538 322.056Z" fill="white"/>
<path opacity="0.5" d="M723.321 320.504C721.686 321.695 724.137 315.852 719.093 312.131C717.608 311.036 717.978 310.717 713.257 311.413C710.494 311.82 710.651 309.835 714.782 309.178C720.603 308.253 727.386 317.542 723.321 320.504Z" fill="white"/>
<path d="M658.361 325.335L654.144 324.518L654.143 324.519C653.403 320.721 651.293 317.979 648.802 317.979H645.567V319.715C644.123 321.439 643.178 324.284 643.178 327.505C643.178 330.726 644.123 333.571 645.567 335.296V337.031H648.802C649.789 337.005 650.729 336.609 651.437 335.922L651.437 335.922L658.085 336.296L658.085 336.282C658.177 336.286 658.268 336.296 658.361 336.296C659.092 336.315 659.82 336.188 660.502 335.921C661.183 335.654 661.805 335.254 662.329 334.743C662.853 334.232 663.27 333.621 663.554 332.947C663.839 332.272 663.985 331.548 663.985 330.815C663.985 330.083 663.839 329.359 663.554 328.684C663.27 328.009 662.853 327.399 662.329 326.888C661.805 326.377 661.183 325.977 660.502 325.71C659.82 325.443 659.092 325.316 658.361 325.335Z" fill="url(#paint16_linear)"/>
<path d="M655.125 325.335L650.908 324.518L650.908 324.519C650.168 320.721 648.057 317.979 645.567 317.979C642.461 317.979 639.942 322.244 639.942 327.505C639.942 332.766 642.461 337.031 645.567 337.031C646.553 337.005 647.494 336.609 648.202 335.922L648.202 335.922L654.85 336.296L654.85 336.282C654.942 336.286 655.032 336.296 655.125 336.296C655.857 336.315 656.585 336.188 657.266 335.921C657.948 335.654 658.569 335.254 659.093 334.743C659.618 334.232 660.034 333.621 660.319 332.947C660.603 332.272 660.75 331.548 660.75 330.815C660.75 330.083 660.603 329.359 660.319 328.684C660.034 328.01 659.618 327.399 659.093 326.888C658.569 326.377 657.948 325.977 657.266 325.71C656.585 325.443 655.857 325.316 655.125 325.335Z" fill="url(#paint17_linear)"/>
<path d="M544.875 447.959H463.112C455.004 458.122 447.108 475.622 447.019 505.224H544.875C556.699 505.224 566.373 498.509 566.373 490.303V462.88C566.373 454.673 556.699 447.959 544.875 447.959Z" fill="#D03731"/>
<path d="M527.817 447.959H463.112C455.004 458.122 447.108 475.622 447.019 505.224H527.817C539.641 505.224 549.316 498.509 549.316 490.303V462.88C549.316 454.673 539.641 447.959 527.817 447.959Z" fill="url(#paint18_linear)"/>
<path d="M766.418 324.519L770.635 325.335C770.635 325.335 770.653 322.283 770.653 320.517C770.653 318.752 767.841 318.255 767.4 319.524C766.959 320.793 766.224 323.664 766.224 323.664C766.224 323.664 766.363 324.238 766.418 324.519Z" fill="url(#paint19_linear)"/>
<path d="M798.298 275.149C806.339 275.149 812.857 265.664 812.857 253.964C812.857 242.264 806.339 232.779 798.298 232.779C790.258 232.779 783.74 242.264 783.74 253.964C783.74 265.664 790.258 275.149 798.298 275.149Z" fill="#BAA0A3"/>
<path d="M798.942 273.277C806.627 273.277 812.857 264.211 812.857 253.028C812.857 241.845 806.627 232.779 798.942 232.779C791.258 232.779 785.028 241.845 785.028 253.028C785.028 264.211 791.258 273.277 798.942 273.277Z" fill="url(#paint20_linear)"/>
<path d="M801.81 256.156C800.108 258.306 797.49 259.067 795.962 257.856C794.434 256.646 794.575 253.922 796.277 251.772C797.979 249.622 800.597 248.861 802.125 250.072C803.653 251.282 803.512 254.007 801.81 256.156Z" fill="url(#paint21_linear)"/>
<path d="M768.441 318.826C768.441 318.826 771.634 292.173 773.024 283.48C775.034 270.907 788.234 260.043 794.718 255.392C796.883 253.839 798.038 256.997 795.941 258.416C789.601 262.705 776.666 272.7 775.23 283.701C773.933 293.63 770.083 319.326 770.083 319.326L768.441 318.826Z" fill="url(#paint22_linear)"/>
<path d="M653.922 324.765C653.922 324.765 653.907 322.283 653.907 320.517C653.907 318.752 656.719 318.255 657.16 319.524C657.602 320.793 658.711 325.703 658.711 325.703C658.641 325.971 653.922 324.765 653.922 324.765Z" fill="url(#paint23_linear)"/>
<path d="M637.81 548.368C643.909 548.368 648.216 546.15 651.235 542.754L651.236 542.752C651.236 542.752 593.621 540.423 592.592 540.423C591.562 540.423 591.856 539.026 591.856 539.026C591.856 539.026 590.974 539.026 590.9 542.41C590.827 545.793 590.868 548.368 590.868 548.368H637.81Z" fill="#FDF4F5"/>
<path d="M624.576 510.301C615.091 509.639 608.363 517.093 606.709 520.207C605.055 523.321 605.055 523.762 602.628 522.438C600.202 521.114 596.011 518.245 597.004 515.597C597.004 515.597 592.592 515.266 592.041 524.976C591.489 534.686 591.857 539.026 591.857 539.026L591.82 539.378C591.807 539.792 591.9 540.423 592.592 540.423C593.621 540.423 651.237 542.752 651.237 542.752L651.236 542.754L651.236 542.754C653.837 539.829 655.481 536.029 656.494 532.02C656.478 532.006 634.057 510.963 624.576 510.301Z" fill="#27405C"/>
<path d="M635.991 525.335C637.913 524.96 639.863 524.742 641.821 524.681C644.357 524.681 649.129 525.519 649.129 525.519C649.186 525.22 649.173 524.911 649.089 524.618C649.005 524.325 648.853 524.055 648.646 523.831C648.15 523.253 647.26 522.583 645.138 522.239C643.12 521.874 641.075 521.682 639.024 521.666C636.597 521.666 632.74 522.417 632.74 522.417C631.955 522.467 630.068 523.531 631.469 524.617C632.572 525.472 634.006 525.776 635.991 525.335Z" fill="#FDF4F5"/>
<path d="M631.265 521.464C633.187 521.09 635.137 520.871 637.095 520.81C639.631 520.81 644.403 521.649 644.403 521.649C644.46 521.349 644.446 521.041 644.363 520.747C644.279 520.454 644.127 520.185 643.92 519.961C643.424 519.382 642.248 518.782 640.127 518.438C638.006 518.095 636.504 517.795 634.298 517.795C631.871 517.795 628.014 518.547 628.014 518.547C627.228 518.597 625.342 519.661 626.743 520.747C627.846 521.602 629.28 521.906 631.265 521.464Z" fill="#FDF4F5"/>
<path d="M626.467 517.768C628.39 517.394 630.34 517.175 632.297 517.114C634.834 517.114 639.606 517.953 639.606 517.953C639.699 517.423 639.024 516.613 638.528 516.034C638.031 515.456 636.73 514.859 634.609 514.515C632.925 514.203 631.213 514.063 629.5 514.099C627.074 514.099 623.216 514.85 623.216 514.85C622.431 514.9 620.545 515.964 621.946 517.051C623.049 517.906 624.482 518.209 626.467 517.768Z" fill="#FDF4F5"/>
<path d="M602.628 522.438C605.054 523.762 605.054 523.321 606.708 520.207C608.363 517.093 615.09 509.639 624.575 510.301L623.197 508.977C623.197 508.977 611.671 514.099 600.132 508.646L597.003 515.597C596.01 518.245 600.201 521.114 602.628 522.438Z" fill="#FDF4F5"/>
<path d="M594.026 487.571L595.129 508.709C595.129 508.709 605.386 514.935 628.105 508.709C628.105 508.709 633.124 490.495 633.701 487.461C627.745 484.868 607.316 489.281 594.026 487.571Z" fill="#504250"/>
<path d="M613.863 492.242C624.819 492.242 633.701 490.101 633.701 487.461C633.701 484.82 624.819 482.679 613.863 482.679C602.907 482.679 594.026 484.82 594.026 487.461C594.026 490.101 602.907 492.242 613.863 492.242Z" fill="#6E606E"/>
<path d="M635.825 349.445C621.708 340.268 614.87 339.385 600.091 342.033C585.313 344.681 535.683 362.556 535.683 362.556C535.683 362.556 531.726 400.709 553.005 404.473C577.151 401.692 585.313 391.024 599.209 389.92C606.929 389.7 605.606 395.588 605.606 401.692C605.606 407.609 597.25 482.662 596.739 487.241C596.723 487.313 596.715 487.387 596.715 487.46C596.715 489.743 604.392 491.594 613.863 491.594C623.333 491.594 631.011 489.743 631.011 487.46C631.011 487.46 642.663 413.533 645.751 395.658C648.839 377.783 649.942 358.622 635.825 349.445Z" fill="#3C2E3B"/>
<path d="M599.209 389.921C585.313 391.024 577.152 401.692 553.005 404.473L605.606 401.692C605.606 395.588 606.93 389.7 599.209 389.921Z" fill="#281A27"/>
<path d="M689.152 353.946C688.866 350.411 688.533 346.809 687.589 343.716C668.769 340.544 638.215 351.213 638.215 351.213L638.216 351.216C649.799 360.933 648.653 378.862 645.751 395.658C645.433 397.502 645.023 399.945 644.544 402.839L648.335 403.026C649.944 391.678 653.367 383.907 657.973 374.252C662.728 364.285 674.715 357.027 689.167 353.946H689.152Z" fill="#322431"/>
<path d="M691.705 241.992C685.823 217.571 656.118 211.097 656.118 211.097C642.921 209.626 631.007 210.068 618.612 201.555C612.524 203.099 609.797 206.358 609.797 206.358C553.329 215.889 543.624 253.983 541.418 259.5C539.212 265.016 552.116 269.915 552.116 269.915C538.551 305.488 533.257 364.984 533.257 364.984H535.392C535.392 364.984 535.435 364.988 535.509 364.996C535.59 363.459 535.683 362.556 535.683 362.556C535.683 362.556 585.313 344.681 600.092 342.033C614.87 339.385 621.708 340.268 635.825 349.445C636.657 349.986 637.455 350.577 638.215 351.215L638.215 351.213C642.958 326.85 660.751 285.245 660.751 285.245C681.264 286.717 693.311 275.149 693.311 275.149C693.311 275.149 694.812 259.058 691.705 241.992Z" fill="url(#paint24_linear)"/>
<path d="M692.538 271.852C684.255 278.466 666.706 283.48 666.412 276.485C666.118 269.491 663.47 261.412 663.47 261.412C654.352 317.317 629.649 306.136 620.077 307.89C610.505 309.643 577.593 307.313 571.858 305.081C566.123 302.849 571.858 275.149 571.858 275.149L550.439 274.558C538.113 310.421 533.257 364.984 533.257 364.984H535.392C535.392 364.984 535.435 364.988 535.509 364.996C535.59 363.459 535.683 362.556 535.683 362.556C535.683 362.556 585.313 344.681 600.092 342.033C614.87 339.385 621.708 340.268 635.825 349.445C636.657 349.986 637.455 350.577 638.215 351.215L638.215 351.213C642.958 326.85 660.75 285.245 660.75 285.245C681.264 286.717 693.31 275.149 693.31 275.149C693.31 275.149 693.467 273.464 693.574 270.617C693.288 271.075 692.94 271.491 692.538 271.852Z" fill="#E44B45"/>
<path d="M543.384 264.816C543.384 264.816 523.514 316.315 543.384 326.967C563.255 337.62 583.932 336.172 613.464 336.075C613.464 336.075 616.12 340.769 618.767 339.047C618.767 339.047 620.384 341.634 623.913 340.73C627.443 339.827 628.982 338.986 631.006 340.73C633.03 342.475 636.046 339.592 638.215 339.047C640.383 338.503 642.442 341.505 644.942 337.944C647.441 334.383 651.46 329.487 650.493 325.115C649.526 320.742 646.167 313.198 644.084 311.58C642.001 309.961 639.721 311.8 638.692 311.727C637.663 311.653 637.001 310.182 634.722 310.623C632.442 311.065 632.291 312.683 631.006 312.683C629.722 312.683 630.089 310.109 626.781 310.844C623.472 311.58 624.722 313.125 622.075 313.272C619.428 313.419 616.855 312.315 614.943 315.773C614.943 315.773 583.907 315.753 563.916 306.725C563.916 306.725 563.255 293.226 571.857 275.149C571.857 275.149 556.38 274.106 543.384 264.816Z" fill="#F9A186"/>
<path d="M605.9 336.122C608.357 336.102 610.879 336.087 613.465 336.075C609.192 327.91 614.944 315.773 614.944 315.773C614.944 315.773 613.447 315.772 610.898 315.674C611.213 323.359 601.856 322.279 605.9 336.122Z" fill="#EE8C74"/>
<path d="M618.285 328.366C617.624 325.337 615.498 323.19 613.386 323.295L613.386 323.292H610.424L610.647 325.179C609.879 326.719 609.683 328.483 610.096 330.154C610.346 331.351 610.869 332.474 611.625 333.435L611.838 335.231L614.549 335.213C614.753 335.232 614.958 335.231 615.162 335.209L615.203 335.209L615.202 335.203C615.294 335.192 615.386 335.184 615.478 335.164C617.739 334.67 618.996 331.626 618.285 328.366Z" fill="#CEB4B7"/>
<path d="M612.5 335.164C614.761 334.67 616.018 331.627 615.306 328.366C614.595 325.105 612.186 322.862 609.924 323.356C607.663 323.85 606.406 326.893 607.117 330.154C607.828 333.414 610.238 335.657 612.5 335.164Z" fill="url(#paint25_linear)"/>
<path opacity="0.5" d="M644.869 325.742C644.207 323.574 641.229 323.386 642.443 327.505C643.656 331.625 637.038 339.495 637.038 339.495L637.037 339.498C637.414 339.31 637.809 339.159 638.215 339.047C638.671 338.947 639.144 338.961 639.594 339.085C642.699 335.084 645.455 327.662 644.869 325.742Z" fill="#EE8C74"/>
<path opacity="0.5" d="M629.847 339.984C633.242 336.321 636.514 327.818 635.88 325.742C635.218 323.574 632.241 323.386 633.454 327.505C634.667 331.625 627.756 339.047 627.756 339.047C627.756 339.047 627.62 339.384 627.489 339.814C628.274 339.63 629.096 339.689 629.847 339.984Z" fill="#EE8C74"/>
<path opacity="0.5" d="M626.892 325.742C626.231 323.574 623.253 323.386 624.466 327.505C625.679 331.625 618.768 339.047 618.768 339.047C619.189 339.643 619.753 340.123 620.407 340.445C623.957 337.091 627.554 327.91 626.892 325.742Z" fill="#EE8C74"/>
<path d="M626.206 329.502L649.753 327.633C650.013 327.613 650.27 327.696 650.469 327.866C650.667 328.035 650.79 328.276 650.811 328.536L651.127 332.522C651.147 332.782 651.064 333.04 650.895 333.238C650.725 333.437 650.484 333.56 650.224 333.581L626.678 335.449C626.418 335.47 626.16 335.386 625.962 335.217C625.764 335.048 625.64 334.806 625.62 334.546L625.304 330.561C625.283 330.3 625.367 330.043 625.536 329.844C625.705 329.646 625.946 329.522 626.206 329.502Z" fill="#FDF4F5"/>
<path d="M627.668 329.386L651.214 327.517C651.474 327.497 651.731 327.58 651.93 327.75C652.128 327.919 652.251 328.16 652.272 328.421L652.588 332.406C652.608 332.666 652.525 332.924 652.356 333.122C652.186 333.321 651.945 333.444 651.685 333.465L628.139 335.333C627.879 335.354 627.622 335.27 627.423 335.101C627.225 334.932 627.102 334.69 627.081 334.43L626.765 330.445C626.745 330.184 626.828 329.927 626.997 329.728C627.167 329.53 627.408 329.407 627.668 329.386Z" fill="url(#paint26_linear)"/>
<path d="M691.706 276.486V276.485C688.042 279.296 678.226 285.548 663.7 285.362L663.692 285.369C663.692 285.369 661.727 302.458 669.511 317.979C675.945 316.999 682.363 314.995 685.787 311.028C688.649 307.892 692.047 305.292 695.823 303.352L695.823 303.35C695.823 303.35 689.941 295.448 691.706 276.486Z" fill="#F9A186"/>
<path d="M626.261 273.586C637.059 273.586 645.813 264.801 645.813 253.964C645.813 243.127 637.059 234.342 626.261 234.342C615.463 234.342 606.709 243.127 606.709 253.964C606.709 264.801 615.463 273.586 626.261 273.586Z" fill="#BAA0A3"/>
<path d="M625.397 271.852C635.718 271.852 644.085 263.455 644.085 253.097C644.085 242.739 635.718 234.342 625.397 234.342C615.076 234.342 606.709 242.739 606.709 253.097C606.709 263.455 615.076 271.852 625.397 271.852Z" fill="url(#paint27_linear)"/>
<path d="M628.599 257.856C630.127 256.646 629.986 253.922 628.284 251.772C626.582 249.622 623.964 248.861 622.436 250.072C620.908 251.282 621.049 254.007 622.751 256.156C624.452 258.306 627.071 259.067 628.599 257.856Z" fill="url(#paint28_linear)"/>
<path d="M656.118 318.826C656.118 318.826 652.924 292.173 651.535 283.48C649.525 270.907 636.324 260.043 629.841 255.392C627.676 253.839 626.521 256.997 628.618 258.416C634.958 262.705 647.893 272.7 649.329 283.701C650.626 293.63 654.476 319.326 654.476 319.326L656.118 318.826Z" fill="url(#paint29_linear)"/>
<path d="M619.503 197.93L616.194 211.392C616.194 211.392 614.05 223.749 626.261 225.736C638.473 227.722 645.31 226.177 647.296 220.439C649.281 214.702 650.494 209.626 650.494 209.626L619.503 197.93Z" fill="#EE8C74"/>
<path d="M680.981 165.633C680.074 165.425 679.125 165.509 678.268 165.873C678.264 165.824 678.262 165.771 678.257 165.725C677.611 159.013 667.187 132.93 667.187 132.93H613.126L608.039 157.618C609.732 160.516 610.655 163.8 610.719 167.157C610.816 172.732 610.679 175.947 608.088 181.436C605.497 186.927 601.261 193.097 604.041 198.379C605.593 208.138 627.826 218.221 647.592 211.611C662.637 206.579 670.987 193.065 675.059 181.785C675.562 182.224 676.161 182.539 676.809 182.703C679.999 183.483 683.518 180.295 684.67 175.581C685.823 170.867 684.171 166.413 680.981 165.633Z" fill="#F9A186"/>
<path d="M665.984 137.074C649.649 133.154 635.909 143.015 626.214 142.663C617.058 142.331 617.762 143.822 615.566 144.705C611.577 146.885 609.675 150.995 608.785 153.994L608.039 157.618C608.039 157.618 610.939 142.569 655.601 141.817C667.711 141.759 669.671 161.197 671.859 164.22C672.119 155.046 665.984 137.074 665.984 137.074Z" fill="#EE8C74"/>
<path d="M671.858 164.22C671.914 164.288 671.988 164.339 672.072 164.368C672.001 164.319 671.931 164.272 671.858 164.22Z" fill="#EE8C74"/>
<path d="M665.338 183.602C668.385 178.67 666.859 172.201 661.929 169.153C656.999 166.105 650.533 167.632 647.487 172.564C644.44 177.496 645.966 183.965 650.896 187.013C655.826 190.061 662.292 188.534 665.338 183.602Z" fill="url(#paint30_radial)"/>
<path d="M631.078 179.742C632.268 174.695 629.144 169.637 624.1 168.446C619.055 167.255 614 170.38 612.809 175.427C611.618 180.474 614.742 185.532 619.787 186.723C624.832 187.914 629.887 184.789 631.078 179.742Z" fill="url(#paint31_radial)"/>
<path d="M669.082 123.9C660.252 112.51 648.387 105.902 620.013 122.65C618.642 122.65 602.029 129.853 608.039 157.618C608.039 157.618 608.813 148.395 615.567 144.705C617.762 143.822 617.059 142.331 626.215 142.663C635.909 143.015 649.649 133.154 665.985 137.074C665.985 137.074 672.12 155.046 671.859 164.22C675.821 167.08 678.218 165.377 678.218 165.377C678.218 165.377 689.222 136.611 669.082 123.9Z" fill="#553326"/>
<path d="M622.764 188.664C622.764 188.664 631.226 192.782 647.592 188.664C647.592 188.664 644.992 202.269 632.277 201.469C619.562 200.668 622.764 188.664 622.764 188.664Z" fill="#7B2E28"/>
<path d="M624.712 189.008C624.712 189.008 632.874 191.897 643.742 189.008C643.742 189.008 644.684 191.773 642.002 192.525C636.895 193.956 631.044 193.579 626.508 192.096C624.774 191.562 624.602 189.203 624.712 189.008Z" fill="white"/>
<path d="M649.026 156.931L649.826 161.278C649.826 161.278 657.831 158.99 663.548 160.706L664.12 158.303C664.12 158.303 658.746 153.27 649.026 156.931Z" fill="#462921"/>
<path d="M629.397 154.497L628.597 160.178C624.644 159.33 620.517 159.921 616.961 161.845L615.728 160.178C615.728 160.178 618.648 153.01 629.397 154.497Z" fill="#462921"/>
<path d="M678.622 173.356C681.236 173.331 678.965 168.873 681.252 169.788C683.539 170.703 683.901 171.809 683.901 171.809C683.901 171.809 683.719 167.671 681.236 167.671C677.563 167.671 677.602 173.366 678.622 173.356Z" fill="#EE8C74"/>
<path d="M676.81 182.703C680 183.483 683.52 180.294 684.672 175.581C684.85 174.847 684.962 174.099 685.008 173.346C680.71 182.703 676.089 178.902 676.089 178.902C675.57 180.533 675.087 181.72 675.061 181.785C675.563 182.225 676.163 182.539 676.81 182.703Z" fill="#EE8C74"/>
<path d="M677.665 162.662L671.859 164.22C673.69 179.943 660.727 189.884 652.951 187.444C633.931 176.08 617.504 186.605 613.844 187.52C610.185 188.435 610.463 174.297 610.463 174.297H610.463C609.907 176.749 609.112 179.14 608.088 181.436C605.497 186.927 601.261 193.097 604.041 198.379C605.593 208.138 627.826 218.221 647.592 211.611C662.638 206.579 670.987 193.065 675.059 181.785C677.448 176.025 678.066 169.165 678.217 165.377C678.083 164.462 677.898 163.556 677.665 162.662ZM634.227 203.536C620.705 203.536 619.104 196.901 620.477 188.664C620.477 188.664 635.77 193.322 650.165 188.664C650.165 188.664 647.749 203.536 634.227 203.536Z" fill="#553326"/>
<path d="M633.04 208.798C610.198 211.214 603.653 195.132 603.163 193.833C603.012 195.401 603.317 196.98 604.041 198.379C605.593 208.138 627.826 218.221 647.592 211.611C662.638 206.579 670.988 193.065 675.059 181.785C677.448 176.025 678.066 169.165 678.218 165.377C666.664 195.858 656.84 206.281 633.04 208.798Z" fill="#462921"/>
<path d="M639.752 165.224C639.752 165.224 637.619 164.138 636.209 168.23C634.799 172.322 633.806 175.458 631.074 176.528C628.342 177.598 628.278 184.698 635.94 183.325C643.601 181.952 645.156 177.79 643.338 172.328C641.521 166.865 641.686 166.401 639.752 165.224Z" fill="#FE8473"/>
<path d="M630.228 179.982C630.569 180.488 631.525 180.441 632.363 179.875C633.2 179.31 633.603 178.442 633.262 177.935C632.92 177.429 631.965 177.476 631.127 178.042C630.289 178.607 629.887 179.475 630.228 179.982Z" fill="#FEB696"/>
<path d="M669.081 123.9C669.081 123.9 661.499 128.556 665.984 137.074C665.984 137.074 672.119 155.046 671.858 164.22C675.82 167.08 678.217 165.377 678.217 165.377C678.217 165.377 689.222 136.611 669.081 123.9Z" fill="#462921"/>
<path d="M666.906 139.919C666.906 139.919 673.763 142.333 679.28 137.983C679.509 138.156 675.912 142.984 667.622 142.263C667.596 142.19 666.906 139.919 666.906 139.919Z" fill="#663E28"/>
<path d="M619.009 123.165C615.813 125.521 602.801 133.424 608.039 157.618C608.039 157.618 608.813 148.395 615.566 144.705C617.762 143.822 617.058 142.331 626.214 142.663C602.68 136.703 620.013 122.65 620.013 122.65L619.009 123.165Z" fill="#462921"/>
<path d="M629.396 168.228C629.396 171.529 626.962 172.388 623.661 172.388C620.361 172.388 617.444 171.529 617.444 168.228C617.444 166.642 618.074 165.122 619.195 164C620.315 162.879 621.835 162.249 623.42 162.249C625.005 162.249 626.525 162.879 627.646 164C628.766 165.122 629.396 166.642 629.396 168.228Z" fill="white"/>
<path d="M623.42 162.249C621.835 162.249 620.315 162.879 619.194 164C618.074 165.122 617.444 166.642 617.444 168.228C618.076 168.243 619.217 164.125 623.42 163.954C627.623 163.782 628.481 168.155 629.396 168.228C629.396 166.642 628.766 165.121 627.645 164C626.525 162.879 625.005 162.249 623.42 162.249Z" fill="#3D1108"/>
<path d="M624.472 164.525C622.943 164.525 621.676 165.673 621.423 167.737C621.618 167.656 621.829 167.621 622.04 167.636C622.251 167.651 622.456 167.716 622.637 167.824C622.819 167.933 622.972 168.082 623.085 168.261C623.199 168.44 623.268 168.642 623.289 168.853C623.31 169.063 623.281 169.276 623.204 169.473C623.128 169.67 623.007 169.847 622.85 169.989C622.693 170.131 622.505 170.234 622.301 170.289C622.097 170.345 621.883 170.353 621.676 170.311C621.879 170.882 622.261 171.373 622.764 171.711C623.267 172.049 623.866 172.216 624.471 172.189C626.182 172.189 627.569 171.063 627.569 168.511C627.569 165.959 626.182 164.525 624.472 164.525Z" fill="#371A15"/>
<path d="M664.359 118.781C663.566 118.067 662.732 117.383 661.856 116.732C631.042 131.555 620.816 122.283 620.746 122.225L620.746 122.225C631.509 139.878 654.563 124.155 664.359 118.781Z" fill="#673F2A"/>
<path d="M624.472 164.525C622.943 164.525 621.676 165.673 621.423 167.737C621.606 167.66 621.804 167.625 622.002 167.635C622.2 167.644 622.394 167.699 622.568 167.793C623.15 167.47 623.806 167.306 624.472 167.318C625.987 167.318 627.246 168.035 627.514 169.326C627.551 169.056 627.569 168.784 627.569 168.511C627.569 165.959 626.182 164.525 624.472 164.525Z" fill="#26120B"/>
<path d="M650.597 168.495C650.597 171.796 653.031 172.655 656.331 172.655C659.632 172.655 662.548 171.796 662.548 168.495C662.548 167.709 662.394 166.932 662.093 166.207C661.793 165.481 661.353 164.822 660.798 164.267C660.243 163.712 659.584 163.272 658.859 162.971C658.134 162.671 657.357 162.516 656.572 162.516C655.788 162.516 655.011 162.671 654.286 162.971C653.561 163.272 652.902 163.712 652.347 164.267C651.792 164.822 651.352 165.481 651.052 166.207C650.751 166.932 650.597 167.709 650.597 168.495Z" fill="white"/>
<path d="M656.573 162.516C658.158 162.516 659.678 163.146 660.798 164.267C661.919 165.388 662.548 166.909 662.548 168.494C661.917 168.51 660.776 164.392 656.572 164.22C652.369 164.049 651.511 168.422 650.597 168.494C650.597 166.909 651.226 165.388 652.347 164.267C653.468 163.146 654.988 162.516 656.573 162.516Z" fill="#3D1108"/>
<path d="M656.388 164.791C654.86 164.791 653.593 165.939 653.339 168.004C653.534 167.922 653.746 167.888 653.957 167.903C654.168 167.918 654.372 167.982 654.554 168.091C654.735 168.199 654.889 168.349 655.002 168.528C655.115 168.706 655.185 168.909 655.206 169.12C655.226 169.33 655.197 169.543 655.121 169.74C655.045 169.937 654.923 170.114 654.766 170.256C654.609 170.397 654.421 170.5 654.217 170.556C654.013 170.612 653.799 170.619 653.592 170.577C653.796 171.148 654.177 171.639 654.68 171.977C655.184 172.316 655.782 172.483 656.388 172.456C658.099 172.456 659.485 171.329 659.485 168.778C659.485 166.226 658.099 164.791 656.388 164.791Z" fill="#371A15"/>
<path d="M656.388 164.791C654.86 164.791 653.593 165.939 653.339 168.004C653.522 167.927 653.72 167.892 653.918 167.901C654.117 167.911 654.31 167.965 654.485 168.06C655.066 167.736 655.723 167.572 656.388 167.585C657.904 167.585 659.163 168.302 659.431 169.593C659.467 169.323 659.485 169.051 659.485 168.778C659.485 166.226 658.099 164.791 656.388 164.791Z" fill="#26120B"/>
<path d="M674.331 158.276C674.331 158.276 678.258 159.28 678.258 162.502V165.725L673.564 164.104L674.331 158.276Z" fill="#646567"/>
<path d="M643.974 158.276C641.925 158.685 640.337 158.948 639.068 159.1C637.799 158.948 636.211 158.685 634.162 158.276C623.43 156.128 603.806 158.276 603.806 158.276C603.806 158.276 603.959 163.951 604.572 164.104C605.185 164.258 606.565 164.411 607.485 168.706C609.785 173.001 609.018 177.756 621.59 178.169C634.162 178.582 634.775 172.847 636.615 166.865C637.541 165.601 638.362 165.096 639.068 165.025C639.773 165.096 640.595 165.601 641.521 166.865C643.36 172.847 643.974 178.582 656.546 178.169C669.118 177.756 668.351 173.001 670.651 168.706C671.571 164.411 672.951 164.258 673.563 164.104C674.177 163.951 674.33 158.276 674.33 158.276C674.33 158.276 654.706 156.128 643.974 158.276ZM633.221 172.102C630.462 177.624 622.029 176.396 615.897 175.783C609.764 175.17 609.457 166.733 609.764 162.438C610.071 158.144 620.803 159.371 627.548 159.218C634.294 159.064 635.061 164.296 635.061 164.296C635.061 164.296 635.981 166.58 633.221 172.102ZM662.725 175.783C656.593 176.396 648.161 177.624 645.401 172.102C642.641 166.58 643.561 164.296 643.561 164.296C643.561 164.296 644.328 159.064 651.074 159.218C657.82 159.371 668.552 158.144 668.858 162.438C669.165 166.733 668.858 175.17 662.725 175.783Z" fill="#252F3E"/>
<path opacity="0.5" d="M622.838 159.2L617.993 176.006C617.261 175.932 616.545 175.856 615.86 175.787C609.727 175.174 609.42 166.738 609.727 162.443C609.904 159.969 613.541 159.329 617.883 159.2H622.838ZM624.556 159.22L619.526 176.143L621.045 176.259L626.042 159.232L624.556 159.22ZM657.891 159.168L652.862 176.212L654.38 176.328L659.377 159.179L657.891 159.168ZM650.999 159.197C644.253 159.044 643.486 164.276 643.486 164.276C643.486 164.276 642.566 166.56 645.326 172.081C646.508 174.445 648.73 175.57 651.365 176.038L656.119 159.168C654.318 159.195 652.553 159.232 650.999 159.197Z" fill="white"/>
<path d="M627.233 199.514C627.233 199.514 635.402 204.313 642.735 196.831C642.735 196.831 629.405 194.363 627.233 199.514Z" fill="#C8322C"/>
<path d="M680.083 159.016C680.083 159.016 681.303 160.01 682.116 156.892C682.929 153.774 691.059 112.157 654.881 105.379C618.703 98.6012 610.709 129.509 610.709 129.509C610.709 129.509 594.72 142.523 598.921 151.876C601.224 157.028 607.186 155.536 607.186 155.536C607.186 155.536 617.036 132.491 640.837 144.42C640.837 144.42 648.648 155.943 652.713 157.57C656.778 159.197 672.428 157.773 675.138 157.773C677.848 157.773 678.593 158.157 680.083 159.016Z" fill="url(#paint32_linear)"/>
<path d="M598.921 151.876C601.224 157.028 607.186 155.536 607.186 155.536C607.186 155.536 617.036 132.491 640.837 144.42C640.837 144.42 648.648 155.943 652.713 157.57C656.778 159.197 672.428 157.773 675.138 157.773C676.075 157.742 677.013 157.831 677.928 158.036C649.216 111.87 610.709 129.509 610.709 129.509C610.709 129.509 594.72 142.523 598.921 151.876Z" fill="#FF5C4B"/>
<path d="M598.919 151.876L600.598 154.177C603.307 156.504 607.185 155.536 607.185 155.536C607.185 155.536 617.035 132.491 640.836 144.42C614.958 119.703 598.919 151.876 598.919 151.876Z" fill="#E44B45"/>
<path d="M429.657 463.241C428.486 463.242 427.349 463.635 426.428 464.36C425.507 465.084 424.856 466.096 424.579 467.234H368.223V331.557L311.537 302.731L314.274 107.383C315.509 107.062 316.585 106.302 317.301 105.244C318.016 104.187 318.322 102.905 318.16 101.638C317.999 100.371 317.382 99.2068 316.424 98.3626C315.466 97.5184 314.234 97.0523 312.958 97.0515C311.681 97.0508 310.449 97.5154 309.49 98.3585C308.531 99.2016 307.913 100.365 307.75 101.632C307.587 102.898 307.891 104.181 308.605 105.239C309.319 106.297 310.395 107.059 311.629 107.381L308.881 304.79L366.019 333.673V469.44H424.518C424.701 470.416 425.158 471.32 425.837 472.046C426.515 472.772 427.385 473.29 428.347 473.539C429.308 473.788 430.321 473.758 431.266 473.453C432.211 473.147 433.05 472.579 433.684 471.814C434.318 471.049 434.721 470.12 434.846 469.134C434.972 468.148 434.814 467.147 434.391 466.248C433.969 465.349 433.299 464.588 432.461 464.056C431.622 463.523 430.65 463.241 429.657 463.241Z" fill="#FF5C4B"/>
<path d="M304.834 87.9504L304.833 87.9506C305.743 86.0681 306.161 83.9853 306.046 81.8972C305.932 79.8092 305.289 77.7845 304.179 76.0128C303.068 74.2412 301.526 72.7807 299.697 71.7684C297.869 70.756 295.813 70.2249 293.722 70.2249C291.632 70.2249 289.576 70.756 287.747 71.7684C285.918 72.7807 284.376 74.2412 283.266 76.0128C282.155 77.7845 281.513 79.8092 281.398 81.8972C281.284 83.9853 281.701 86.0681 282.612 87.9506L282.611 87.9504L293.722 109.452L304.834 87.9504ZM293.722 75.3006C295.159 75.3006 296.564 75.7268 297.758 76.5254C298.953 77.324 299.884 78.4591 300.434 79.7871C300.984 81.1151 301.128 82.5764 300.847 83.9862C300.567 85.396 299.875 86.691 298.859 87.7074C297.843 88.7238 296.549 89.416 295.14 89.6965C293.73 89.9769 292.27 89.833 290.942 89.2829C289.615 88.7328 288.48 87.8013 287.682 86.6061C286.884 85.4109 286.458 84.0058 286.458 82.5683C286.458 80.6408 287.223 78.7922 288.586 77.4293C289.948 76.0663 291.796 75.3006 293.722 75.3006Z" fill="#FF5C4B"/>
<defs>
<linearGradient id="paint0_linear" x1="96.8262" y1="521.781" x2="337.24" y2="521.781" gradientUnits="userSpaceOnUse">
<stop stop-color="#E44B45"/>
<stop offset="0.52854" stop-color="#F55C4F"/>
<stop offset="1" stop-color="#FF6655"/>
</linearGradient>
<linearGradient id="paint1_linear" x1="113292" y1="168622" x2="113292" y2="124656" gradientUnits="userSpaceOnUse">
<stop stop-color="#E44B45"/>
<stop offset="0.52854" stop-color="#F55C4F"/>
<stop offset="1" stop-color="#FF6655"/>
</linearGradient>
<linearGradient id="paint2_linear" x1="535413" y1="566084" x2="535413" y2="56374.6" gradientUnits="userSpaceOnUse">
<stop stop-color="#E44B45"/>
<stop offset="0.52854" stop-color="#F55C4F"/>
<stop offset="1" stop-color="#FF6655"/>
</linearGradient>
<linearGradient id="paint3_linear" x1="472.717" y1="376.987" x2="566.374" y2="376.987" gradientUnits="userSpaceOnUse">
<stop stop-color="#E7493E"/>
<stop offset="1" stop-color="#D03731"/>
</linearGradient>
<linearGradient id="paint4_linear" x1="142827" y1="27961.9" x2="167900" y2="27961.9" gradientUnits="userSpaceOnUse">
<stop stop-color="#E7493E"/>
<stop offset="1" stop-color="#D03731"/>
</linearGradient>
<linearGradient id="paint5_linear" x1="447.011" y1="479.168" x2="657.221" y2="479.168" gradientUnits="userSpaceOnUse">
<stop stop-color="#FF5C4B"/>
<stop offset="1" stop-color="#D03731"/>
</linearGradient>
<linearGradient id="paint6_linear" x1="697.503" y1="509.852" x2="801.945" y2="509.852" gradientUnits="userSpaceOnUse">
<stop stop-color="#E44B45"/>
<stop offset="0.52854" stop-color="#F55649"/>
<stop offset="1" stop-color="#FF5C4B"/>
</linearGradient>
<linearGradient id="paint7_linear" x1="775.705" y1="331.078" x2="797.656" y2="331.078" gradientUnits="userSpaceOnUse">
<stop stop-color="#DBC6C9"/>
<stop offset="1" stop-color="#F3EAEB"/>
</linearGradient>
<linearGradient id="paint8_linear" x1="48101.3" y1="20000.8" x2="49296.2" y2="20000.8" gradientUnits="userSpaceOnUse">
<stop stop-color="#DBC6C9"/>
<stop offset="1" stop-color="#F3EAEB"/>
</linearGradient>
<linearGradient id="paint9_linear" x1="752.216" y1="327.505" x2="773.024" y2="327.505" gradientUnits="userSpaceOnUse">
<stop stop-color="#CEB4B7"/>
<stop offset="1" stop-color="#DFCDCF"/>
</linearGradient>
<linearGradient id="paint10_linear" x1="118595" y1="153022" x2="127280" y2="153022" gradientUnits="userSpaceOnUse">
<stop stop-color="#E44B45"/>
<stop offset="0.52854" stop-color="#F55649"/>
<stop offset="1" stop-color="#FF5C4B"/>
</linearGradient>
<linearGradient id="paint11_linear" x1="236702" y1="59982.7" x2="236702" y2="51950.6" gradientUnits="userSpaceOnUse">
<stop stop-color="#E44B45"/>
<stop offset="0.52854" stop-color="#F55649"/>
<stop offset="1" stop-color="#FF5C4B"/>
</linearGradient>
<linearGradient id="paint12_linear" x1="714.24" y1="345.785" x2="714.24" y2="299.987" gradientUnits="userSpaceOnUse">
<stop stop-color="#CEB4B7"/>
<stop offset="1" stop-color="#F3EAEB"/>
</linearGradient>
<linearGradient id="paint13_linear" x1="700.413" y1="322.886" x2="728.067" y2="322.886" gradientUnits="userSpaceOnUse">
<stop stop-color="#F3EAEB"/>
<stop offset="1" stop-color="#C4A5AB"/>
</linearGradient>
<linearGradient id="paint14_linear" x1="701.241" y1="34729" x2="741.424" y2="31847.2" gradientUnits="userSpaceOnUse">
<stop stop-color="#CEB4B7"/>
<stop offset="1" stop-color="#F3EAEB"/>
</linearGradient>
<linearGradient id="paint15_linear" x1="702.129" y1="322.886" x2="726.352" y2="322.886" gradientUnits="userSpaceOnUse">
<stop stop-color="#C4A5AB"/>
<stop offset="1" stop-color="#F3EAEB"/>
</linearGradient>
<linearGradient id="paint16_linear" x1="41541.4" y1="20000.8" x2="42736.4" y2="20000.8" gradientUnits="userSpaceOnUse">
<stop stop-color="#DBC6C9"/>
<stop offset="1" stop-color="#F3EAEB"/>
</linearGradient>
<linearGradient id="paint17_linear" x1="41351.8" y1="20000.8" x2="42546.7" y2="20000.8" gradientUnits="userSpaceOnUse">
<stop stop-color="#CEB4B7"/>
<stop offset="1" stop-color="#DFCDCF"/>
</linearGradient>
<linearGradient id="paint18_linear" x1="160575" y1="87683.9" x2="160575" y2="78637.7" gradientUnits="userSpaceOnUse">
<stop stop-color="#E44B45"/>
<stop offset="0.52854" stop-color="#F55649"/>
<stop offset="1" stop-color="#FF5C4B"/>
</linearGradient>
<linearGradient id="paint19_linear" x1="11004.3" y1="7015.86" x2="11004.3" y2="6898.58" gradientUnits="userSpaceOnUse">
<stop stop-color="#CEB4B7"/>
<stop offset="1" stop-color="#F3EAEB"/>
</linearGradient>
<linearGradient id="paint20_linear" x1="67448" y1="36013.5" x2="67448" y2="31489.1" gradientUnits="userSpaceOnUse">
<stop stop-color="#CEB4B7"/>
<stop offset="1" stop-color="#F3EAEB"/>
</linearGradient>
<linearGradient id="paint21_linear" x1="18088.3" y1="5209.39" x2="18240.3" y2="5017.56" gradientUnits="userSpaceOnUse">
<stop stop-color="#C4A5AB"/>
<stop offset="1" stop-color="#F3EAEB"/>
</linearGradient>
<linearGradient id="paint22_linear" x1="66883.5" y1="59574.9" x2="69141.9" y2="59574.9" gradientUnits="userSpaceOnUse">
<stop stop-color="#CEB4B7"/>
<stop offset="1" stop-color="#F3EAEB"/>
</linearGradient>
<linearGradient id="paint23_linear" x1="13953.2" y1="7441.4" x2="13953.2" y2="7309.04" gradientUnits="userSpaceOnUse">
<stop stop-color="#CEB4B7"/>
<stop offset="1" stop-color="#F3EAEB"/>
</linearGradient>
<linearGradient id="paint24_linear" x1="302682" y1="185960" x2="302682" y2="112268" gradientUnits="userSpaceOnUse">
<stop stop-color="#E44B45"/>
<stop offset="0.52854" stop-color="#F55C4F"/>
<stop offset="1" stop-color="#FF6655"/>
</linearGradient>
<linearGradient id="paint25_linear" x1="606.918" y1="329.26" x2="615.505" y2="329.26" gradientUnits="userSpaceOnUse">
<stop stop-color="#F3EAEB"/>
<stop offset="1" stop-color="#DBC6C9"/>
</linearGradient>
<linearGradient id="paint26_linear" x1="49454.6" y1="4441.26" x2="51255.9" y2="4298.5" gradientUnits="userSpaceOnUse">
<stop stop-color="#F3EAEB"/>
<stop offset="1" stop-color="#DBC6C9"/>
</linearGradient>
<linearGradient id="paint27_linear" x1="113629" y1="33227.5" x2="113629" y2="29346.2" gradientUnits="userSpaceOnUse">
<stop stop-color="#CEB4B7"/>
<stop offset="1" stop-color="#F3EAEB"/>
</linearGradient>
<linearGradient id="paint28_linear" x1="27519.4" y1="10571.6" x2="27350.4" y2="10358.4" gradientUnits="userSpaceOnUse">
<stop stop-color="#C4A5AB"/>
<stop offset="1" stop-color="#F3EAEB"/>
</linearGradient>
<linearGradient id="paint29_linear" x1="89098.5" y1="59574.9" x2="86840.1" y2="59574.9" gradientUnits="userSpaceOnUse">
<stop stop-color="#CEB4B7"/>
<stop offset="1" stop-color="#F3EAEB"/>
</linearGradient>
<radialGradient id="paint30_radial" cx="0" cy="0" r="1" gradientUnits="userSpaceOnUse" gradientTransform="translate(656.413 178.083) scale(10.493 10.4979)">
<stop stop-color="#FE7B67"/>
<stop offset="1" stop-color="#F9A186"/>
</radialGradient>
<radialGradient id="paint31_radial" cx="0" cy="0" r="1" gradientUnits="userSpaceOnUse" gradientTransform="translate(37023.2 11802.8) scale(486.204 486.431)">
<stop stop-color="#FE7B67"/>
<stop offset="1" stop-color="#F9A186"/>
</radialGradient>
<linearGradient id="paint32_linear" x1="167587" y1="31247.7" x2="167587" y2="22975.9" gradientUnits="userSpaceOnUse">
<stop stop-color="#E44B45"/>
<stop offset="0.52854" stop-color="#F55C4F"/>
<stop offset="1" stop-color="#FF6655"/>
</linearGradient>
</defs>
</svg>
