<svg width="209" height="66" viewBox="0 0 209 66" fill="none" xmlns="http://www.w3.org/2000/svg">
<rect width="209" height="66" rx="33" fill="#F2F2F2"/>
<path d="M73.57 25.088V18.32H70.726C70.678 19.3 70.61 20.16 70.522 20.9C70.434 21.64 70.33 22.282 70.21 22.826C70.09 23.37 69.956 23.826 69.808 24.194C69.66 24.558 69.5 24.856 69.328 25.088H73.57ZM76.144 25.088V27.746C76.144 27.85 76.11 27.934 76.042 27.998C75.974 28.062 75.884 28.094 75.772 28.094H75.082V26H68.152V27.746C68.152 27.85 68.116 27.934 68.044 27.998C67.976 28.062 67.888 28.094 67.78 28.094H67.084V25.088H67.96C68.084 25.028 68.208 24.932 68.332 24.8C68.456 24.664 68.574 24.472 68.686 24.224C68.802 23.972 68.91 23.656 69.01 23.276C69.11 22.896 69.2 22.432 69.28 21.884C69.364 21.332 69.436 20.688 69.496 19.952C69.556 19.216 69.602 18.366 69.634 17.402H74.74V25.088H76.144ZM79.7183 19.826C80.1623 19.826 80.5623 19.9 80.9183 20.048C81.2743 20.196 81.5783 20.406 81.8303 20.678C82.0823 20.95 82.2743 21.28 82.4063 21.668C82.5423 22.052 82.6103 22.482 82.6103 22.958C82.6103 23.438 82.5423 23.87 82.4063 24.254C82.2743 24.638 82.0823 24.966 81.8303 25.238C81.5783 25.51 81.2743 25.72 80.9183 25.868C80.5623 26.012 80.1623 26.084 79.7183 26.084C79.2703 26.084 78.8663 26.012 78.5063 25.868C78.1503 25.72 77.8463 25.51 77.5943 25.238C77.3423 24.966 77.1483 24.638 77.0123 24.254C76.8803 23.87 76.8143 23.438 76.8143 22.958C76.8143 22.482 76.8803 22.052 77.0123 21.668C77.1483 21.28 77.3423 20.95 77.5943 20.678C77.8463 20.406 78.1503 20.196 78.5063 20.048C78.8663 19.9 79.2703 19.826 79.7183 19.826ZM79.7183 25.25C80.3183 25.25 80.7663 25.05 81.0623 24.65C81.3583 24.246 81.5063 23.684 81.5063 22.964C81.5063 22.24 81.3583 21.676 81.0623 21.272C80.7663 20.868 80.3183 20.666 79.7183 20.666C79.4143 20.666 79.1483 20.718 78.9203 20.822C78.6963 20.926 78.5083 21.076 78.3563 21.272C78.2083 21.468 78.0963 21.71 78.0203 21.998C77.9483 22.282 77.9123 22.604 77.9123 22.964C77.9123 23.684 78.0603 24.246 78.3563 24.65C78.6563 25.05 79.1103 25.25 79.7183 25.25ZM88.4349 21.002C88.4029 21.046 88.3709 21.08 88.3389 21.104C88.3069 21.128 88.2629 21.14 88.2069 21.14C88.1469 21.14 88.0809 21.116 88.0089 21.068C87.9369 21.016 87.8469 20.96 87.7389 20.9C87.6349 20.84 87.5049 20.786 87.3489 20.738C87.1969 20.686 87.0089 20.66 86.7849 20.66C86.4849 20.66 86.2209 20.714 85.9929 20.822C85.7649 20.926 85.5729 21.078 85.4169 21.278C85.2649 21.478 85.1489 21.72 85.0689 22.004C84.9929 22.288 84.9549 22.606 84.9549 22.958C84.9549 23.326 84.9969 23.654 85.0809 23.942C85.1649 24.226 85.2829 24.466 85.4349 24.662C85.5909 24.854 85.7769 25.002 85.9929 25.106C86.2129 25.206 86.4589 25.256 86.7309 25.256C86.9909 25.256 87.2049 25.226 87.3729 25.166C87.5409 25.102 87.6789 25.032 87.7869 24.956C87.8989 24.88 87.9909 24.812 88.0629 24.752C88.1389 24.688 88.2129 24.656 88.2849 24.656C88.3729 24.656 88.4409 24.69 88.4889 24.758L88.7889 25.148C88.6569 25.312 88.5069 25.452 88.3389 25.568C88.1709 25.684 87.9889 25.782 87.7929 25.862C87.6009 25.938 87.3989 25.994 87.1869 26.03C86.9749 26.066 86.7589 26.084 86.5389 26.084C86.1589 26.084 85.8049 26.014 85.4769 25.874C85.1529 25.734 84.8709 25.532 84.6309 25.268C84.3909 25 84.2029 24.672 84.0669 24.284C83.9309 23.896 83.8629 23.454 83.8629 22.958C83.8629 22.506 83.9249 22.088 84.0489 21.704C84.1769 21.32 84.3609 20.99 84.6009 20.714C84.8449 20.434 85.1429 20.216 85.4949 20.06C85.8509 19.904 86.2589 19.826 86.7189 19.826C87.1469 19.826 87.5229 19.896 87.8469 20.036C88.1749 20.172 88.4649 20.366 88.7169 20.618L88.4349 21.002ZM95.2274 20.738H92.8934V26H91.8254V20.738H89.4914V19.922H95.2274V20.738ZM101.73 19.922L98.3397 27.794C98.3037 27.874 98.2577 27.938 98.2017 27.986C98.1497 28.034 98.0677 28.058 97.9557 28.058H97.1637L98.2737 25.646L95.7657 19.922H96.6897C96.7817 19.922 96.8537 19.946 96.9057 19.994C96.9617 20.038 96.9997 20.088 97.0197 20.144L98.6457 23.972C98.7097 24.14 98.7637 24.316 98.8077 24.5C98.8637 24.312 98.9237 24.134 98.9877 23.966L100.566 20.144C100.59 20.08 100.63 20.028 100.686 19.988C100.746 19.944 100.812 19.922 100.884 19.922H101.73ZM107.977 26H106.903V20.738H103.987V26H102.913V19.922H107.977V26ZM114.979 19.922V26H113.905V23.156H110.989V26H109.915V19.922H110.989V22.346H113.905V19.922H114.979ZM119.479 19.826C119.923 19.826 120.323 19.9 120.679 20.048C121.035 20.196 121.339 20.406 121.591 20.678C121.843 20.95 122.035 21.28 122.167 21.668C122.303 22.052 122.371 22.482 122.371 22.958C122.371 23.438 122.303 23.87 122.167 24.254C122.035 24.638 121.843 24.966 121.591 25.238C121.339 25.51 121.035 25.72 120.679 25.868C120.323 26.012 119.923 26.084 119.479 26.084C119.031 26.084 118.627 26.012 118.267 25.868C117.911 25.72 117.607 25.51 117.355 25.238C117.103 24.966 116.909 24.638 116.773 24.254C116.641 23.87 116.575 23.438 116.575 22.958C116.575 22.482 116.641 22.052 116.773 21.668C116.909 21.28 117.103 20.95 117.355 20.678C117.607 20.406 117.911 20.196 118.267 20.048C118.627 19.9 119.031 19.826 119.479 19.826ZM119.479 25.25C120.079 25.25 120.527 25.05 120.823 24.65C121.119 24.246 121.267 23.684 121.267 22.964C121.267 22.24 121.119 21.676 120.823 21.272C120.527 20.868 120.079 20.666 119.479 20.666C119.175 20.666 118.909 20.718 118.681 20.822C118.457 20.926 118.269 21.076 118.117 21.272C117.969 21.468 117.857 21.71 117.781 21.998C117.709 22.282 117.673 22.604 117.673 22.964C117.673 23.684 117.821 24.246 118.117 24.65C118.417 25.05 118.871 25.25 119.479 25.25ZM129.61 25.25C130.01 25.25 130.326 25.158 130.558 24.974C130.79 24.786 130.906 24.53 130.906 24.206C130.906 24.062 130.884 23.932 130.84 23.816C130.796 23.696 130.724 23.592 130.624 23.504C130.524 23.416 130.39 23.348 130.222 23.3C130.058 23.252 129.856 23.228 129.616 23.228H128.302V25.25H129.61ZM128.302 20.642V22.55H129.472C129.648 22.55 129.81 22.526 129.958 22.478C130.11 22.426 130.24 22.356 130.348 22.268C130.456 22.176 130.54 22.068 130.6 21.944C130.66 21.816 130.69 21.676 130.69 21.524C130.69 21.412 130.67 21.304 130.63 21.2C130.59 21.092 130.522 20.998 130.426 20.918C130.33 20.834 130.204 20.768 130.048 20.72C129.892 20.668 129.7 20.642 129.472 20.642H128.302ZM129.502 19.922C129.878 19.922 130.2 19.96 130.468 20.036C130.736 20.112 130.956 20.216 131.128 20.348C131.3 20.476 131.426 20.628 131.506 20.804C131.586 20.98 131.626 21.168 131.626 21.368C131.626 21.5 131.608 21.638 131.572 21.782C131.536 21.926 131.472 22.064 131.38 22.196C131.292 22.328 131.17 22.448 131.014 22.556C130.862 22.66 130.67 22.742 130.438 22.802C130.902 22.882 131.26 23.044 131.512 23.288C131.764 23.528 131.89 23.846 131.89 24.242C131.89 24.538 131.83 24.796 131.71 25.016C131.594 25.232 131.432 25.414 131.224 25.562C131.02 25.71 130.78 25.82 130.504 25.892C130.228 25.964 129.932 26 129.616 26H127.276V19.922H129.502Z" fill="#333333"/>
<path d="M80.5 40.91V46.61C79.0667 47.6433 77.4 48.16 75.5 48.16C74.3333 48.16 73.2767 47.98 72.33 47.62C71.39 47.2533 70.5867 46.7467 69.92 46.1C69.2533 45.4467 68.74 44.67 68.38 43.77C68.02 42.87 67.84 41.88 67.84 40.8C67.84 39.7133 68.0133 38.72 68.36 37.82C68.7067 36.9133 69.2033 36.1367 69.85 35.49C70.4967 34.8367 71.2767 34.3333 72.19 33.98C73.1033 33.62 74.13 33.44 75.27 33.44C75.85 33.44 76.3867 33.4867 76.88 33.58C77.38 33.6667 77.8433 33.79 78.27 33.95C78.6967 34.11 79.09 34.3033 79.45 34.53C79.81 34.7567 80.14 35.01 80.44 35.29L79.77 36.36C79.6633 36.5267 79.5267 36.63 79.36 36.67C79.1933 36.71 79.0133 36.67 78.82 36.55C78.6267 36.4367 78.42 36.3167 78.2 36.19C77.9867 36.0633 77.74 35.9467 77.46 35.84C77.18 35.7267 76.8567 35.6367 76.49 35.57C76.1233 35.4967 75.69 35.46 75.19 35.46C74.43 35.46 73.7433 35.5867 73.13 35.84C72.5233 36.0867 72.0033 36.4433 71.57 36.91C71.1367 37.37 70.8033 37.93 70.57 38.59C70.3367 39.25 70.22 39.9867 70.22 40.8C70.22 41.66 70.3433 42.43 70.59 43.11C70.8367 43.7833 71.1867 44.3567 71.64 44.83C72.0933 45.2967 72.64 45.6533 73.28 45.9C73.9267 46.1467 74.6467 46.27 75.44 46.27C76.0333 46.27 76.56 46.2067 77.02 46.08C77.4867 45.9533 77.9433 45.7767 78.39 45.55V42.69H76.38C76.2267 42.69 76.1067 42.65 76.02 42.57C75.9333 42.4833 75.89 42.3733 75.89 42.24V40.91H80.5ZM87.5536 37.64C88.3069 37.64 88.9869 37.7633 89.5936 38.01C90.2069 38.2567 90.7269 38.6067 91.1536 39.06C91.5869 39.5133 91.9203 40.0633 92.1536 40.71C92.3869 41.3567 92.5036 42.0833 92.5036 42.89C92.5036 43.6967 92.3869 44.4233 92.1536 45.07C91.9203 45.7167 91.5869 46.27 91.1536 46.73C90.7269 47.1833 90.2069 47.5333 89.5936 47.78C88.9869 48.0267 88.3069 48.15 87.5536 48.15C86.7936 48.15 86.1069 48.0267 85.4936 47.78C84.8869 47.5333 84.3669 47.1833 83.9336 46.73C83.5003 46.27 83.1669 45.7167 82.9336 45.07C82.7003 44.4233 82.5836 43.6967 82.5836 42.89C82.5836 42.0833 82.7003 41.3567 82.9336 40.71C83.1669 40.0633 83.5003 39.5133 83.9336 39.06C84.3669 38.6067 84.8869 38.2567 85.4936 38.01C86.1069 37.7633 86.7936 37.64 87.5536 37.64ZM87.5536 46.47C88.4736 46.47 89.1569 46.1633 89.6036 45.55C90.0569 44.93 90.2836 44.0467 90.2836 42.9C90.2836 41.7533 90.0569 40.87 89.6036 40.25C89.1569 39.6233 88.4736 39.31 87.5536 39.31C86.6203 39.31 85.9269 39.6233 85.4736 40.25C85.0203 40.87 84.7936 41.7533 84.7936 42.9C84.7936 44.0467 85.0203 44.93 85.4736 45.55C85.9269 46.1633 86.6203 46.47 87.5536 46.47ZM99.3794 37.64C100.133 37.64 100.813 37.7633 101.419 38.01C102.033 38.2567 102.553 38.6067 102.979 39.06C103.413 39.5133 103.746 40.0633 103.979 40.71C104.213 41.3567 104.329 42.0833 104.329 42.89C104.329 43.6967 104.213 44.4233 103.979 45.07C103.746 45.7167 103.413 46.27 102.979 46.73C102.553 47.1833 102.033 47.5333 101.419 47.78C100.813 48.0267 100.133 48.15 99.3794 48.15C98.6194 48.15 97.9327 48.0267 97.3194 47.78C96.7127 47.5333 96.1927 47.1833 95.7594 46.73C95.326 46.27 94.9927 45.7167 94.7594 45.07C94.526 44.4233 94.4094 43.6967 94.4094 42.89C94.4094 42.0833 94.526 41.3567 94.7594 40.71C94.9927 40.0633 95.326 39.5133 95.7594 39.06C96.1927 38.6067 96.7127 38.2567 97.3194 38.01C97.9327 37.7633 98.6194 37.64 99.3794 37.64ZM99.3794 46.47C100.299 46.47 100.983 46.1633 101.429 45.55C101.883 44.93 102.109 44.0467 102.109 42.9C102.109 41.7533 101.883 40.87 101.429 40.25C100.983 39.6233 100.299 39.31 99.3794 39.31C98.446 39.31 97.7527 39.6233 97.2994 40.25C96.846 40.87 96.6194 41.7533 96.6194 42.9C96.6194 44.0467 96.846 44.93 97.2994 45.55C97.7527 46.1633 98.446 46.47 99.3794 46.47ZM110.357 42.81C111.024 42.81 111.524 42.64 111.857 42.3C112.19 41.96 112.357 41.5167 112.357 40.97C112.357 40.41 112.19 39.9667 111.857 39.64C111.524 39.3133 111.024 39.15 110.357 39.15C109.697 39.15 109.197 39.3133 108.857 39.64C108.524 39.9667 108.357 40.41 108.357 40.97C108.357 41.2367 108.4 41.4833 108.487 41.71C108.574 41.9367 108.7 42.1333 108.867 42.3C109.034 42.46 109.24 42.5867 109.487 42.68C109.74 42.7667 110.03 42.81 110.357 42.81ZM113.347 48.5C113.347 48.2733 113.28 48.0933 113.147 47.96C113.02 47.82 112.847 47.7133 112.627 47.64C112.407 47.56 112.15 47.5033 111.857 47.47C111.564 47.43 111.25 47.4033 110.917 47.39C110.59 47.37 110.254 47.3533 109.907 47.34C109.567 47.32 109.237 47.2867 108.917 47.24C108.597 47.4067 108.334 47.6067 108.127 47.84C107.927 48.0733 107.827 48.3433 107.827 48.65C107.827 48.85 107.877 49.0367 107.977 49.21C108.084 49.3833 108.244 49.5333 108.457 49.66C108.677 49.7867 108.954 49.8867 109.287 49.96C109.627 50.0333 110.034 50.07 110.507 50.07C111.454 50.07 112.164 49.9233 112.637 49.63C113.11 49.3367 113.347 48.96 113.347 48.5ZM115.507 38.17V38.97C115.507 39.2367 115.347 39.4 115.027 39.46L114.007 39.63C114.18 40.0167 114.267 40.4467 114.267 40.92C114.267 41.42 114.167 41.8733 113.967 42.28C113.774 42.6867 113.504 43.0333 113.157 43.32C112.81 43.6067 112.397 43.8267 111.917 43.98C111.437 44.1333 110.917 44.21 110.357 44.21C110.144 44.21 109.934 44.2 109.727 44.18C109.527 44.1533 109.33 44.12 109.137 44.08C108.944 44.1933 108.8 44.3133 108.707 44.44C108.614 44.5667 108.567 44.6967 108.567 44.83C108.567 45.05 108.664 45.2133 108.857 45.32C109.05 45.4267 109.304 45.5033 109.617 45.55C109.937 45.5967 110.3 45.6267 110.707 45.64C111.114 45.6533 111.527 45.6767 111.947 45.71C112.367 45.7433 112.78 45.8 113.187 45.88C113.594 45.9533 113.954 46.08 114.267 46.26C114.587 46.4333 114.844 46.67 115.037 46.97C115.23 47.27 115.327 47.66 115.327 48.14C115.327 48.58 115.217 49.01 114.997 49.43C114.777 49.85 114.457 50.2233 114.037 50.55C113.624 50.8767 113.117 51.1367 112.517 51.33C111.917 51.53 111.234 51.63 110.467 51.63C109.707 51.63 109.044 51.5567 108.477 51.41C107.917 51.2633 107.447 51.0633 107.067 50.81C106.694 50.5633 106.414 50.2767 106.227 49.95C106.047 49.6233 105.957 49.2833 105.957 48.93C105.957 48.45 106.107 48.04 106.407 47.7C106.714 47.36 107.127 47.0933 107.647 46.9C107.367 46.7667 107.14 46.5833 106.967 46.35C106.8 46.1167 106.717 45.81 106.717 45.43C106.717 45.13 106.827 44.8167 107.047 44.49C107.267 44.1633 107.597 43.8867 108.037 43.66C107.53 43.38 107.13 43.01 106.837 42.55C106.544 42.0833 106.397 41.54 106.397 40.92C106.397 40.4133 106.494 39.9567 106.687 39.55C106.887 39.1433 107.164 38.7967 107.517 38.51C107.87 38.2233 108.287 38.0033 108.767 37.85C109.254 37.6967 109.784 37.62 110.357 37.62C111.237 37.62 112.004 37.8033 112.657 38.17H115.507ZM119.795 33.2V48H117.645V33.2H119.795ZM129.539 41.75C129.539 41.39 129.486 41.0567 129.379 40.75C129.279 40.4367 129.129 40.1667 128.929 39.94C128.729 39.7067 128.479 39.5267 128.179 39.4C127.886 39.2667 127.546 39.2 127.159 39.2C126.379 39.2 125.766 39.4233 125.319 39.87C124.872 40.3167 124.589 40.9433 124.469 41.75H129.539ZM124.409 43.07C124.436 43.65 124.526 44.1533 124.679 44.58C124.832 45 125.036 45.35 125.289 45.63C125.549 45.91 125.856 46.12 126.209 46.26C126.569 46.3933 126.969 46.46 127.409 46.46C127.829 46.46 128.192 46.4133 128.499 46.32C128.806 46.22 129.072 46.1133 129.299 46C129.526 45.88 129.719 45.7733 129.879 45.68C130.039 45.58 130.186 45.53 130.319 45.53C130.492 45.53 130.626 45.5967 130.719 45.73L131.329 46.52C131.076 46.82 130.789 47.0733 130.469 47.28C130.149 47.4867 129.809 47.6567 129.449 47.79C129.089 47.9167 128.719 48.0067 128.339 48.06C127.959 48.12 127.589 48.15 127.229 48.15C126.522 48.15 125.866 48.0333 125.259 47.8C124.659 47.56 124.136 47.21 123.689 46.75C123.249 46.29 122.902 45.72 122.649 45.04C122.402 44.36 122.279 43.5767 122.279 42.69C122.279 41.9833 122.389 41.3233 122.609 40.71C122.836 40.0967 123.156 39.5633 123.569 39.11C123.989 38.6567 124.496 38.3 125.089 38.04C125.689 37.7733 126.366 37.64 127.119 37.64C127.746 37.64 128.326 37.7433 128.859 37.95C129.392 38.15 129.852 38.4467 130.239 38.84C130.626 39.2333 130.926 39.7167 131.139 40.29C131.359 40.8567 131.469 41.5033 131.469 42.23C131.469 42.5633 131.432 42.7867 131.359 42.9C131.286 43.0133 131.152 43.07 130.959 43.07H124.409ZM144.135 40.94C144.655 40.94 145.111 40.8733 145.505 40.74C145.905 40.6067 146.235 40.42 146.495 40.18C146.761 39.9333 146.961 39.6367 147.095 39.29C147.228 38.9433 147.295 38.5567 147.295 38.13C147.295 37.71 147.228 37.3333 147.095 37C146.968 36.6667 146.775 36.3833 146.515 36.15C146.255 35.9167 145.925 35.74 145.525 35.62C145.131 35.4933 144.668 35.43 144.135 35.43H141.995V40.94H144.135ZM144.135 33.6C145.075 33.6 145.888 33.71 146.575 33.93C147.268 34.15 147.838 34.46 148.285 34.86C148.738 35.2533 149.075 35.73 149.295 36.29C149.515 36.8433 149.625 37.4567 149.625 38.13C149.625 38.8167 149.508 39.4467 149.275 40.02C149.041 40.5867 148.695 41.0767 148.235 41.49C147.775 41.8967 147.201 42.2167 146.515 42.45C145.835 42.6767 145.041 42.79 144.135 42.79H141.995V48H139.655V33.6H144.135ZM153.993 33.2V48H151.843V33.2H153.993ZM162.497 43.54C161.73 43.5667 161.083 43.63 160.557 43.73C160.03 43.8233 159.603 43.9467 159.277 44.1C158.95 44.2467 158.713 44.4233 158.567 44.63C158.427 44.8367 158.357 45.0633 158.357 45.31C158.357 45.55 158.393 45.7567 158.467 45.93C158.547 46.0967 158.653 46.2367 158.787 46.35C158.927 46.4567 159.087 46.5367 159.267 46.59C159.453 46.6367 159.657 46.66 159.877 46.66C160.437 46.66 160.917 46.5567 161.317 46.35C161.723 46.1367 162.117 45.83 162.497 45.43V43.54ZM156.797 39.22C157.95 38.1467 159.323 37.61 160.917 37.61C161.503 37.61 162.023 37.7067 162.477 37.9C162.937 38.0867 163.32 38.3533 163.627 38.7C163.94 39.0467 164.177 39.46 164.337 39.94C164.503 40.4133 164.587 40.94 164.587 41.52V48H163.627C163.42 48 163.263 47.97 163.157 47.91C163.05 47.8433 162.96 47.7133 162.887 47.52L162.677 46.69C162.417 46.9233 162.16 47.1333 161.907 47.32C161.653 47.5 161.39 47.6533 161.117 47.78C160.85 47.9067 160.56 48 160.247 48.06C159.94 48.1267 159.6 48.16 159.227 48.16C158.813 48.16 158.427 48.1033 158.067 47.99C157.713 47.8767 157.407 47.7067 157.147 47.48C156.887 47.2467 156.68 46.96 156.527 46.62C156.38 46.28 156.307 45.88 156.307 45.42C156.307 45.0267 156.41 44.6433 156.617 44.27C156.83 43.8967 157.177 43.5633 157.657 43.27C158.143 42.97 158.78 42.7233 159.567 42.53C160.36 42.3367 161.337 42.2267 162.497 42.2V41.52C162.497 40.7867 162.34 40.24 162.027 39.88C161.713 39.52 161.253 39.34 160.647 39.34C160.233 39.34 159.887 39.3933 159.607 39.5C159.327 39.6 159.083 39.71 158.877 39.83C158.67 39.95 158.487 40.0633 158.327 40.17C158.167 40.27 157.997 40.32 157.817 40.32C157.67 40.32 157.543 40.2833 157.437 40.21C157.337 40.13 157.253 40.0333 157.187 39.92L156.797 39.22ZM176.282 37.8L170.662 50.9C170.589 51.0533 170.499 51.1733 170.392 51.26C170.292 51.3467 170.135 51.39 169.922 51.39H168.332L170.212 47.31L166.052 37.8H167.922C168.102 37.8 168.239 37.8433 168.332 37.93C168.432 38.01 168.505 38.1067 168.552 38.22L170.982 44.01C171.042 44.1767 171.095 44.3433 171.142 44.51C171.195 44.67 171.245 44.8367 171.292 45.01C171.345 44.8367 171.399 44.6667 171.452 44.5C171.505 44.3333 171.565 44.1667 171.632 44L173.962 38.22C174.009 38.1 174.085 38 174.192 37.92C174.305 37.84 174.429 37.8 174.562 37.8H176.282Z" fill="#333333"/>
<path fill-rule="evenodd" clip-rule="evenodd" d="M24.4865 18.4544C24.1491 18.818 23.9542 19.3736 23.9542 20.1008V45.8935C23.9542 46.6207 24.1491 47.1762 24.4982 47.5253L24.5883 47.6038L39.0394 33.1527V32.8299L24.5767 18.3759L24.4865 18.4544Z" fill="url(#paint0_linear)"/>
<path fill-rule="evenodd" clip-rule="evenodd" d="M43.8477 37.9843L39.0278 33.1643V32.8269L43.8477 28.007L43.9525 28.071L49.6538 31.3114C51.2856 32.2306 51.2856 33.749 49.6538 34.6798L43.9525 37.9203L43.8477 37.9843Z" fill="url(#paint1_linear)"/>
<path fill-rule="evenodd" clip-rule="evenodd" d="M43.9525 37.9203L39.0278 32.9956L24.4865 47.5369C25.0189 48.107 25.9119 48.171 26.9096 47.6154L43.9525 37.9203Z" fill="url(#paint2_linear)"/>
<path fill-rule="evenodd" clip-rule="evenodd" d="M43.9525 28.071L26.9096 18.3904C25.9119 17.8202 25.016 17.8988 24.4865 18.4689L39.0278 32.9956L43.9525 28.071Z" fill="url(#paint3_linear)"/>
<defs>
<linearGradient id="paint0_linear" x1="37.7432" y1="19.8225" x2="14.595" y2="25.9904" gradientUnits="userSpaceOnUse">
<stop stop-color="#00A0FF"/>
<stop offset="0.00657" stop-color="#00A1FF"/>
<stop offset="0.2601" stop-color="#00BEFF"/>
<stop offset="0.5122" stop-color="#00D2FF"/>
<stop offset="0.7604" stop-color="#00DFFF"/>
<stop offset="1" stop-color="#00E3FF"/>
</linearGradient>
<linearGradient id="paint1_linear" x1="51.7819" y1="32.9957" x2="23.5576" y2="32.9957" gradientUnits="userSpaceOnUse">
<stop stop-color="#FFE000"/>
<stop offset="0.4087" stop-color="#FFBD00"/>
<stop offset="0.7754" stop-color="#FFA500"/>
<stop offset="1" stop-color="#FF9C00"/>
</linearGradient>
<linearGradient id="paint2_linear" x1="41.2746" y1="35.6753" x2="22.6914" y2="66.9525" gradientUnits="userSpaceOnUse">
<stop stop-color="#FF3A44"/>
<stop offset="1" stop-color="#C31162"/>
</linearGradient>
<linearGradient id="paint3_linear" x1="20.8249" y1="9.8753" x2="29.1156" y2="23.8441" gradientUnits="userSpaceOnUse">
<stop stop-color="#32A071"/>
<stop offset="0.0685" stop-color="#2DA771"/>
<stop offset="0.4762" stop-color="#15CF74"/>
<stop offset="0.8009" stop-color="#06E775"/>
<stop offset="1" stop-color="#00F076"/>
</linearGradient>
</defs>
</svg>
